<svg width="104" height="140" xmlns="http://www.w3.org/2000/svg">
 <!-- Created with Method Draw - http://github.com/duopixel/Method-Draw/ -->

 <g>
  <title>background</title>
  <rect x="-1" y="-1" width="106" height="142" id="canvas_background" fill="none"/>
  <g id="canvasGrid" display="none">
   <rect id="svg_1" width="368" height="144" x="3" y="3" stroke-width="0" fill="url(#gridpattern)"/>
  </g>
 </g>
 <g>
  <title>Layer 1</title>
  <path fill="#ffffff" stroke="#000" stroke-width="0" stroke-opacity="null" d="m56.1968,94.09249c0,0 22.51963,0 22.51963,0c9.76376,-8.34644 17.48028,-19.52751 17.48028,-19.52751c4.25196,-9.4488 3.937,-15.11808 3.937,-15.11808c0.94488,-13.54328 -1.88976,-33.22828 -1.95275,-33.32276c-1.03937,-12.81888 -3.40157,-19.59052 -3.40157,-19.59052c-5.98424,-9.44879 -7.71652,3.77952 -7.71652,3.77952c-1.41732,11.96848 0.47244,28.18892 0.47244,28.18892c0.78366,3.62079 2.94339,13.80633 3.3426,15.90548c0.39921,2.09915 -1.02805,8.41589 -1.64343,8.92871c-0.61539,0.51282 -5.59533,8.23936 -6.45238,10.50231c-0.85705,2.26295 -1.88977,1.59356 -1.2632,-0.7874c0.62657,-2.38096 3.30267,-5.32216 5.16603,-8.65938c1.86336,-3.33722 2.08141,-2.8923 2.58266,-7.77952c0.50125,-4.88722 -1.38429,-8.59478 -2.39524,-13.05983c-5.39176,-9.01434 -8.07167,-0.27476 -8.15592,0.14647c-0.84246,3.70683 -1.25984,10.07872 -1.25984,10.07872c0,0 0.31496,5.03936 0.31496,5.03936c-0.15748,3.62204 -3.1496,5.98424 -3.1496,5.98424c-0.54545,0 -17.00783,9.44879 -18.42515,29.29127z" id="svg_4"/>
  <path fill="#ffffff" stroke-width="0" stroke-opacity="null" d="m48.05954,93.96148c0,0 -22.9942,0 -22.9942,0c-9.96952,-8.34644 -17.84866,-19.52751 -17.84866,-19.52751c-4.34156,-9.4488 -4.01997,-15.11808 -4.01997,-15.11808c-0.96479,-13.54328 1.92958,-33.22828 1.9939,-33.32276c1.06127,-12.81888 3.47325,-19.59052 3.47325,-19.59052c6.11035,-9.44879 7.87914,3.77952 7.87914,3.77952c1.44719,11.96848 -0.4824,28.18892 -0.4824,28.18892c-0.80017,3.62079 -3.00542,13.80633 -3.41304,15.90548c-0.40762,2.09915 1.04971,8.41589 1.67806,8.92871c0.62836,0.51282 5.71324,8.23936 6.58836,10.50231c0.87511,2.26295 1.92959,1.59356 1.28982,-0.7874c-0.63977,-2.38096 -3.37227,-5.32216 -5.2749,-8.65938c-1.90263,-3.33722 -2.12527,-2.8923 -2.63709,-7.77952c-0.51181,-4.88722 1.41346,-8.59478 2.44572,-13.05983c5.50538,-9.01434 8.24177,-0.27476 8.3278,0.14647c0.86021,3.70683 1.28639,10.07872 1.28639,10.07872c0,0 -0.3216,5.03936 -0.3216,5.03936c0.1608,3.62204 3.21597,5.98424 3.21597,5.98424c0.55694,0 17.36625,9.44879 18.81344,29.29127l0.00001,0z" id="svg_9" stroke="#000"/>
  <path fill="#ffffff" stroke-width="0" stroke-opacity="null" d="m28.39099,37.7486c0,0 0.75444,7.76149 2.54364,11.97721c1.7892,4.21572 0.86888,2.50668 3.52845,6.33647c2.72647,4.31606 6.45855,6.85947 10.60748,9.19989c4.14893,2.34042 2.96952,-0.58868 2.27616,-2.41217c-0.69336,-1.82349 -4.91809,-10.57893 -5.67281,-11.80535c-1.60377,-2.6415 -5.17696,-6.79284 -5.17696,-6.79284c0,0 -5.73516,-6.9866 -8.10596,-6.50321z" id="svg_10" stroke="#000"/>
  <path fill="#ffffff" stroke-width="0" stroke-opacity="null" d="m30.5608,23.87948c0,0 0.68927,7.37485 2.32391,11.38056c1.63464,4.00571 0.79382,2.38181 3.22365,6.02081c2.49095,4.10105 5.90064,6.51776 9.69117,8.74159c3.79053,2.22383 2.713,-0.55935 2.07954,-2.29201c-0.63347,-1.73265 -4.49325,-10.05193 -5.18278,-11.21726c-1.46523,-2.50991 -4.72976,-6.45445 -4.72976,-6.45445c0,0 -5.23974,-6.63856 -7.40574,-6.17925l0.00001,0.00001z" id="svg_12" stroke="#000"/>
  <path fill="#ffffff" stroke-width="0" stroke-opacity="null" d="m36.69288,13.4999c0,0 0.51186,6.65312 1.72577,10.26681c1.21391,3.61369 0.58951,2.14872 2.39393,5.43159c1.84981,3.69971 4.38189,5.87991 7.19679,7.88611c2.8149,2.0062 2.01472,-0.50462 1.54429,-2.0677c-0.47042,-1.56309 -3.33674,-9.06821 -3.8488,-10.11949c-1.0881,-2.26428 -3.51238,-5.82279 -3.51238,-5.82279c0,0 -3.8911,-5.98888 -5.4996,-5.57452l0,-0.00001z" id="svg_13" stroke="#000"/>
  <path fill="#ffffff" stroke-width="0" stroke-opacity="null" d="m54.1457,33.17412c0,0 0.95136,-7.53473 0.13028,-11.43934c-0.82109,-3.9046 -0.48525,-2.66771 -1.70576,-6.21486c-1.2512,-3.99755 -4.17497,-5.66122 -6.07895,-7.82892c-1.90399,-2.1677 -1.36275,0.54524 -1.04456,2.23416c0.31819,1.68891 2.25697,9.79821 2.60332,10.93413c0.73598,2.44656 2.37576,6.29154 2.37576,6.29154c0,0 2.63193,6.471 3.71991,6.02329z" id="svg_14" stroke="#000"/>
  <path fill="#ffffff" stroke-width="0" stroke-opacity="null" d="m56.61064,22.80343c0,0 -0.31022,-3.74397 0.32138,-5.90263c0.6316,-2.15865 0.39356,-1.56984 0.89053,-3.85746c0.49697,-2.28762 0.96169,-4.60381 1.72806,-6.11253c0.76637,-1.50872 1.6689,1.69786 1.88962,2.9419c0.22072,1.24403 0.12579,5.4945 -0.14063,6.12249c-0.56614,1.35258 -1.8275,3.47827 -1.8275,3.47827c0,0 -2.02455,3.57748 -2.86146,3.32996z" id="svg_15" stroke="#000"/>
  <path fill="#ffffff" stroke-width="0" stroke-opacity="null" d="m57.39718,32.05017c0,0 -0.79479,-3.9725 0.25738,-6.54418c1.05219,-2.57168 1.1876,-2.18136 2.75162,-4.51761c1.60336,-2.6329 3.81377,-4.10186 6.25363,-5.52957c2.43988,-1.4277 2.00304,0.60396 1.59529,1.71633c-0.40773,1.11238 -3.16855,6.0867 -3.61238,6.83485c-0.94312,1.61137 -2.17079,3.44547 -3.0052,4.47243c-0.70603,1.15533 -2.84615,3.86262 -4.24034,3.56775z" id="svg_16" stroke="#000"/>
  <path fill="#ffffff" stroke-width="0" stroke-opacity="null" d="m55.3609,47.57693c0,0 -0.47717,-4.62413 1.20641,-8.13114c1.68361,-3.50699 2.33457,-4.13752 4.83717,-7.32346c2.56553,-3.59048 5.74745,-5.48662 9.65147,-7.43358c3.90404,-1.94696 2.79425,0.48972 2.14182,2.00666c-0.65244,1.51693 -4.62781,8.80046 -5.33799,9.82071c-1.50909,2.19742 -4.87138,5.65087 -4.87138,5.65087c0,0 -5.39665,5.81206 -7.6275,5.40994z" id="svg_17" stroke="#000"/>
  <path fill="#ffffff" stroke-width="0" stroke-opacity="null" d="m57.37659,64.78434c0,0 -0.52539,-6.07895 1.32831,-10.68932c1.85373,-4.61034 2.57047,-5.43924 5.32595,-9.62753c2.82477,-4.7201 6.32821,-7.21279 10.62671,-9.77229c4.29853,-2.5595 3.0766,0.64379 2.35824,2.63798c-0.71837,1.99418 -5.09543,11.56921 -5.87737,12.91045c-1.66158,2.88876 -5.36361,7.42872 -5.36361,7.42872c0,0 -5.94196,7.64062 -8.39823,7.11199z" id="svg_18" stroke="#000"/>
  <path fill="#ffffff" stroke="#000" stroke-width="0" stroke-opacity="null" d="m53.77596,38.25756c0,0 -2.54521,6.16209 -3.41594,10.44877c-0.87073,4.28668 -0.26792,13.12794 -0.13396,13.52982c0.13396,0.40187 0.40188,42.59883 0.40188,42.59883c0,0 -0.13396,33.75757 -0.13396,33.75757c0,0 3.5499,-0.13396 3.5499,-0.13396c0,0 0,-39.51779 0,-39.51779c0,0 0,-0.93771 -0.05358,-21.09847c0.05358,0.06697 -0.88413,-25.92099 -0.81715,-28.06433c-0.3349,-1.47355 0.60281,-11.52044 0.60281,-11.52044z" id="svg_19"/>
  <path fill="#ffffff" stroke="#000" stroke-width="0" stroke-opacity="null" d="m45.1031,81.78336c0,0 0.80456,-1.14218 2.27966,-1.45897c0.76532,-0.15714 1.29177,0.16717 1.2158,0.15197c0.63607,1.30775 0.37992,2.44682 0.37992,2.44682c-0.04308,0.94787 0.6079,1.36778 0.6079,1.44377c0,0.07598 0.68389,0.37994 0.68389,0.37994c0.25851,0.04308 0.15198,1.36778 0.15198,1.36778c-1.33563,-0.30159 -2.35562,-1.13982 -2.35562,-1.13982c-0.08617,-1.20638 -0.6839,-2.20365 -0.6839,-2.20365c-0.12925,-0.47393 -1.8237,0.07599 -1.8237,0.07599c0,0 -0.28359,-0.67607 -0.45593,-1.06383z" id="svg_21"/>
  <path fill="#ffffff" stroke="#000" stroke-width="0" stroke-opacity="null" d="m46.82208,87.22303c0.05963,-0.43085 2.26593,0.53667 2.26593,0.53667c0.30159,0.60319 -0.05963,1.61 -0.05963,1.61c0.5601,0.38776 1.49074,0.47704 1.49074,0.42934c0,0.0477 0,2.19437 0,2.14668c-0.08617,-0.46933 -0.95407,-0.66786 -0.95407,-0.71556c-0.30159,-0.12464 -1.01371,0.46511 -1.01371,0.46511c-0.60319,0.04308 -0.89445,-0.5963 -0.89445,-0.644c0,0.0477 0.11926,-1.38342 0.11926,-1.38342c0,0 -0.11926,-0.71556 -0.11926,-0.77519c0,-0.05962 -0.59629,-0.4174 -0.59629,-0.4174c0,0 -0.29815,-0.82138 -0.23852,-1.25223z" id="svg_22"/>
  <path fill="#ffffff" stroke="#000" stroke-width="0" stroke-opacity="null" d="m54.0661,87.79761c0,0 1.01304,-0.32965 1.55216,-0.17829c0.62417,-0.10827 1.4368,0.49292 1.4368,0.49292c0,0 -0.36706,2.83165 -0.36706,2.83165c0,0 -0.73414,-1.25851 -0.75511,-1.27948c0.02097,-0.32371 -0.39853,-0.60829 -0.39853,-0.60829c-0.60319,-0.17234 -1.41583,0.52438 -1.41583,0.52438c0,0 -0.22477,-1.69672 -0.05243,-1.78289z" id="svg_24"/>
  <path fill="#ffffff" stroke="#000" stroke-width="0" stroke-opacity="null" d="m54.07117,82.22893c0,0 1.72727,-0.22727 1.72727,-0.22727c-0.08993,-0.40468 0.18182,-1 0.18182,-1.04545c0,-0.04546 1.36363,-0.13637 1.32728,-0.14546c-0.09854,-0.44055 0.39999,-1.26364 0.39999,-1.26364c0.67446,0.4946 0.54545,1.86364 0.5091,1.85455c0.17124,0.81844 -0.23637,1.05455 -0.23637,1.05455c-0.17986,0.6295 -0.68182,1.22727 -0.68182,1.22727c0.08993,0.67446 0.59091,0.59091 0.55456,0.58181c0.21621,0.05406 -0.23638,1.46364 -0.27273,1.45455c-0.41329,0.09902 -1.10001,-0.26364 -1.10001,-0.26364c-0.17986,-0.76439 -0.04546,-2.04545 -0.04546,-2.04545c0.04496,-0.26978 0,-0.54545 0,-0.54545c-0.08993,-0.22482 -1.54545,0.27272 -1.5818,0.26363c0.03635,0.00909 -0.87274,-0.12727 -0.87274,-0.12727c0,0 -0.04398,-0.81769 0.09091,-0.77273z" id="svg_25"/>
  <path fill="#fa8426" stroke="#000" stroke-width="0" stroke-opacity="null" opacity="0.5" d="m25.77455,97.71799" id="svg_27"/>
  <path fill="#ffffff" stroke="#000" stroke-width="0" stroke-opacity="null" opacity="0.5" d="m25.38694,102.71604c0.43478,0 19.13043,0.26087 19.13043,0.26087" id="svg_29"/>
  <path fill="#ffffff" stroke-width="0" stroke-opacity="null" d="m55.3609,47.57693c0,0 -0.47717,-4.62413 1.20641,-8.13114c1.68361,-3.50699 2.33457,-4.13752 4.83717,-7.32346c2.56553,-3.59048 5.74745,-5.48662 9.65147,-7.43358c3.90404,-1.94696 2.79425,0.48972 2.14182,2.00666c-0.65244,1.51693 -4.62781,8.80046 -5.33799,9.82071c-1.50909,2.19742 -4.87138,5.65087 -4.87138,5.65087c0,0 -5.39665,5.81206 -7.6275,5.40994z" id="svg_38" stroke="#000"/>
  <path fill="#ffffff" stroke-width="0" stroke-opacity="null" d="m25.50293,97.26391c0,0 22.3922,-0.27817 22.3922,-0.27817c0,0 0.13908,41.30734 0.13908,41.30734c0,0 -22.39219,-0.27816 -22.39219,-0.27816c0,0 -0.13909,-40.75101 -0.13909,-40.75101z" id="svg_90" stroke="#000"/>
  <path fill="#ffffff" stroke="#000" stroke-width="0.5" stroke-opacity="null" d="m25.7199,101.95382c0,0 18.77275,0.18315 18.77275,0.18315c0,0 -0.09157,32.32576 -0.09157,32.32576c0,0 -18.77275,-0.09158 -18.77275,-0.09158c0,0 0.09157,-32.41733 0.09157,-32.41733z" id="svg_91"/>
  <line fill="none" stroke-width="0.5" stroke-opacity="null" x1="25.81148" y1="106.03689" x2="27.86964" y2="103.71549" id="svg_92" stroke-linejoin="null" stroke-linecap="null" stroke="#000"/>
  <line fill="none" stroke="#000" stroke-width="0.5" stroke-opacity="null" x1="33.13743" y1="103.60216" x2="27.64297" y2="103.78531" id="svg_93" stroke-linejoin="null" stroke-linecap="null"/>
  <line fill="none" stroke-width="0.5" stroke-opacity="null" x1="27.73454" y1="105.79994" x2="28.13862" y2="108.4556" id="svg_94" stroke-linejoin="null" stroke-linecap="null" stroke="#000"/>
  <line fill="none" stroke-width="0.5" stroke-opacity="null" x1="25.73592" y1="112.17812" x2="28.23019" y2="108.22319" id="svg_95" stroke-linejoin="null" stroke-linecap="null" stroke="#000"/>
  <line fill="none" stroke-width="0.5" stroke-opacity="null" x1="29.56603" y1="106.62411" x2="33.01382" y2="103.67772" id="svg_96" stroke-linejoin="null" stroke-linecap="null" stroke="#000"/>
  <line fill="none" stroke-width="0.5" stroke-opacity="null" x1="35.5504" y1="102.07743" x2="44.12636" y2="110.89033" id="svg_97" stroke-linejoin="null" stroke-linecap="null" stroke="#000"/>
  <line fill="none" stroke="#000" stroke-width="0.5" stroke-opacity="null" x1="31.30594" y1="128.96826" x2="30.93965" y2="127.22835" id="svg_98" stroke-linejoin="null" stroke-linecap="null"/>
  <line fill="none" stroke="#000" stroke-width="0.5" stroke-opacity="null" x1="28.19242" y1="128.65576" x2="31.1228" y2="127.00742" id="svg_99" stroke-linejoin="null" stroke-linecap="null"/>
  <line fill="none" stroke="#000" stroke-width="0.5" stroke-opacity="null" x1="25.71991" y1="121.27601" x2="29.29131" y2="126.31261" id="svg_100" stroke-linejoin="null" stroke-linecap="null"/>
  <line fill="none" stroke-width="0.5" stroke-opacity="null" x1="28.37556" y1="128.47261" x2="29.40464" y2="126.06417" id="svg_101" stroke-linejoin="null" stroke-linecap="null" stroke="#000"/>
  <line fill="none" stroke-width="0.5" stroke-opacity="null" x1="37.16671" y1="134.37115" x2="40.28023" y2="130.66465" id="svg_102" stroke-linejoin="null" stroke-linecap="null" stroke="#000"/>
  <line fill="none" stroke-width="0.5" stroke-opacity="null" x1="44.40108" y1="128.32724" x2="37.12318" y2="120.09582" id="svg_103" stroke-linejoin="null" stroke-linecap="null" stroke="#000"/>
  <line fill="none" stroke="#000" stroke-width="0.5" stroke-opacity="null" x1="34.78577" y1="113.76692" x2="38.54032" y2="118.80351" id="svg_104" stroke-linejoin="null" stroke-linecap="null"/>
  <line fill="none" stroke-width="0.5" stroke-opacity="null" x1="37.16671" y1="120.36027" x2="38.47051" y2="118.63637" id="svg_105" stroke-linejoin="null" stroke-linecap="null" stroke="#000"/>
  <line fill="none" stroke-width="0.5" stroke-opacity="null" x1="34.6404" y1="113.67534" x2="38.37893" y2="108.97754" id="svg_106" stroke-linejoin="null" stroke-linecap="null" stroke="#000"/>
  <line fill="none" stroke-width="0.5" stroke-opacity="null" x1="34.96892" y1="105.06735" x2="38.34116" y2="109.28551" id="svg_107" stroke-linejoin="null" stroke-linecap="null" stroke="#000"/>
  <line fill="none" stroke-width="0.5" stroke-opacity="null" x1="27.00195" y1="114.82803" x2="35.18257" y2="104.96853" id="svg_108" stroke-linejoin="null" stroke-linecap="null" stroke="#000"/>
  <line fill="none" stroke-width="0.5" stroke-opacity="null" x1="40.09709" y1="130.89132" x2="26.8188" y2="114.69293" id="svg_109" stroke-linejoin="null" stroke-linecap="null" stroke="#000"/>
  <line fill="none" stroke="#000" stroke-width="0.5" stroke-opacity="null" x1="31.21437" y1="109.64607" x2="34.60262" y2="113.58377" id="svg_110" stroke-linejoin="null" stroke-linecap="null"/>
  <line fill="none" stroke="#000" stroke-width="0.5" stroke-opacity="null" x1="30.0239" y1="118.89508" x2="34.6942" y2="113.67534" id="svg_111" stroke-linejoin="null" stroke-linecap="null"/>
  <line fill="none" stroke-width="0.5" stroke-opacity="null" x1="39.45606" y1="114.86581" x2="44.17563" y2="110.71745" id="svg_112" stroke-linejoin="null" stroke-linecap="null" stroke="#000"/>
  <line fill="none" stroke-width="0.5" stroke-opacity="null" x1="44.25118" y1="119.83833" x2="39.49384" y2="114.50978" id="svg_113" stroke-linejoin="null" stroke-linecap="null" stroke="#000"/>
  <line fill="none" stroke="#000" stroke-width="0.5" stroke-opacity="null" x1="44.40108" y1="124.66427" x2="41.65385" y2="121.73389" id="svg_114" stroke-linejoin="null" stroke-linecap="null"/>
  <line fill="none" stroke-width="0.5" stroke-opacity="null" x1="44.16988" y1="119.64944" x2="41.56228" y2="122.00861" id="svg_115" stroke-linejoin="null" stroke-linecap="null" fill-opacity="0" stroke="#000"/>
  <path fill="#000000" stroke="#000" stroke-width="0.5" stroke-opacity="null" id="svg_116" d="m26.73628,132.49944c0,0 -0.04663,-0.01932 0,-0.06595c0.02332,-0.02331 0.09748,-0.01812 0.13193,-0.13192c0.00957,-0.03159 0.03298,-0.13193 0.09894,-0.19791c0.03299,-0.03299 0.03299,-0.06595 0.06596,-0.09894c0.03299,-0.03299 0.06597,-0.06595 0.09896,-0.09894c0,0 0.0025,-0.02038 0.03297,-0.03299c0.04311,-0.01785 0.06847,-0.05334 0.09894,-0.06594c0.04311,-0.01786 0.02717,-0.04905 0.09895,-0.06598c0.03209,-0.00757 0.04267,-0.04264 0.06597,-0.06595c0.02331,-0.02332 0.04263,-0.00968 0.06596,-0.03299c0.02332,-0.02332 0.03297,0 0.03297,0c0.03299,0 0.06849,-0.02036 0.09896,-0.03299c0.04309,-0.01785 0.06596,-0.06595 0.09894,-0.06595c0.03298,0 0.03549,0.0126 0.06596,0c0.04311,-0.01785 0.05231,0.01364 0.09895,-0.03299c0.02333,-0.02331 0.03298,-0.03299 0.03298,-0.03299c0.06596,0 0.08883,-0.04812 0.13192,-0.06595c0.06095,-0.02524 0.08883,-0.01513 0.13193,-0.03299c0.06095,-0.02523 0.09894,0 0.13193,0c0,0 0.03297,-0.03299 0.09894,-0.03299c0.03299,0 0.06016,-0.04901 0.13192,-0.06594c0.03211,-0.00757 0.12182,-0.01514 0.16491,-0.03299c0.06094,-0.02524 0.13444,0.01263 0.16491,0c0.04309,-0.01786 0.08882,-0.08109 0.13193,-0.09894c0.03047,-0.01261 0.08882,-0.01514 0.13193,-0.03299c0.0914,-0.03787 0.19571,-0.07071 0.26384,-0.09894c0.09636,-0.03992 0.12707,-0.10464 0.16491,-0.13193c0.05983,-0.04312 0.06597,-0.03299 0.06597,-0.03299c0.06596,0 0.06596,-0.03299 0.09894,-0.06595c0.03299,-0.03298 0.02717,-0.04904 0.09895,-0.06597c0.03209,-0.00757 0.06596,-0.06595 0.06596,-0.06595c0.03298,-0.03299 0.04264,-0.04267 0.06597,-0.06598c0.04664,-0.04663 0.04574,-0.06326 0.13192,-0.09894c0.03048,-0.0126 0.06595,0 0.06595,-0.03299c0,0 0.03299,0 0.06597,0c0,0 0.01931,0.01367 0.06596,-0.03296c0.02333,-0.02331 0,-0.03299 0.03299,-0.03299c0.03297,0 0.06596,0 0.09894,0c0,0 0.03299,0 0.06596,0c0.06597,0 0.13193,0 0.19789,0c0.06597,0 0.13193,0 0.19789,0c0.09894,0 0.1979,0 0.23087,0c0.03299,0 0.06596,0 0.09895,0c0,0 0,0 0.03298,0c0.03299,0 0.06596,0 0.06596,0c0.03299,0 0.03299,0 0.06596,0c0.03299,0 0.06597,0 0.09896,0c0,0 -0.01012,0.01514 0.03297,0.03299c0.06095,0.02524 0.09894,0.03296 0.13193,0.03296c0,0 0.03297,0 0.06596,0.03299c0.03298,0.03299 0.06597,0.06595 0.09894,0.06595c0.03299,0 0.06685,0.02542 0.09895,0.03299c0.07178,0.01694 0.12612,0.11499 0.1979,0.13193c0.03209,0.00756 0.07209,0.02285 0.13192,0.06597c0.03783,0.02726 0.10387,0.04862 0.13192,0.06595c0.06274,0.03879 0.12522,0.10739 0.16491,0.13193c0.08872,0.05484 0.13193,0.06598 0.19789,0.09894c0.06597,0.03299 0.0721,0.02286 0.13193,0.06598c0.03784,0.02728 0.06015,0.082 0.13193,0.09894c0.06418,0.01516 0.09894,0.03299 0.1649,0.06594c0.06596,0.03299 0.13281,0.05841 0.1649,0.06598c0.07178,0.01694 0.14179,0.03128 0.19789,0.06595c0.06275,0.03879 0.07351,0.02811 0.16492,0.06598c0.04309,0.01785 0.09313,0.082 0.1649,0.09894c0.0642,0.01517 0.09894,0.03299 0.13193,0.03299c0.03297,0 0.06596,0 0.13193,0c0.03297,0 0.06596,0.03299 0.13192,0.03299c0,0 0.03298,0 0.06597,0c0.06596,0 0.13193,0 0.19787,0c0,0 0.06597,0 0.13193,0c0,0 0.03299,0 0.09896,0c0.03297,0 0.06596,0 0.13192,0c0.03298,0 0.06685,0.00757 0.09894,0c0.07178,-0.01694 0.06639,-0.02771 0.09895,-0.03299c0.10296,-0.01673 0.09894,-0.03299 0.16491,-0.06598c0.06596,-0.03296 0.10395,-0.04071 0.1649,-0.06595c0.0431,-0.01785 0.06596,-0.03299 0.09895,-0.06598c0.03298,-0.03296 0.04263,-0.04263 0.06596,-0.06595c0.04665,-0.04663 0.10396,-0.00775 0.16491,-0.03299c0.0431,-0.01785 0.10861,-0.04263 0.13192,-0.06594c0.02333,-0.02332 0.06597,-0.03299 0.09894,-0.03299c0.03299,0 0.09896,0 0.13193,0c0.03299,0 0.10145,0.0126 0.13193,0c0.0431,-0.01786 0.06846,-0.02036 0.09895,-0.03299c0.04308,-0.01783 0.06596,-0.06595 0.13193,-0.06595c0.03297,0 0.03297,0 0.06596,0c0.03298,0 0.06597,0 0.06597,0c0.03297,0 0.04263,0.02331 0.06596,0c0.02333,-0.02332 0.06595,-0.03299 0.06595,-0.03299c0,0 -0.03296,0.03299 -0.06595,0.06598c-0.03298,0.03296 -0.00966,0.04263 -0.03299,0.06595c-0.02332,0.02331 -0.0863,0.0025 -0.09894,0.03299c-0.01785,0.04309 -0.09315,0.0032 -0.13193,0.06594c-0.01735,0.02808 -0.01564,0.03794 -0.03299,0.06598c-0.03877,0.06272 -0.08882,0.08109 -0.13192,0.09894c-0.03048,0.0126 -0.03623,0.02719 -0.09894,0.06595c-0.02806,0.01733 -0.03549,0.02039 -0.06596,0.03299c-0.04311,0.01785 -0.06597,0.03299 -0.09896,0.03299c0,0 0.01261,0.03549 0,0.06595c-0.01784,0.04309 -0.06595,0.06598 -0.06595,0.06598c0,0.03299 -0.04812,0.05584 -0.06596,0.09893c-0.01262,0.03049 0.00757,0.06687 0,0.09894c-0.01695,0.07181 -0.03299,0.06598 -0.03299,0.09894c0,0.03299 0,0.06598 -0.03297,0.09897c0,0 0,0.03296 0,0.06595c0,0.03299 0,0.06598 0,0.09893c0,0.03299 0,0.09897 0,0.13193c0,0.06598 0,0.09897 0,0.16492c0,0.06595 0,0.13193 0,0.19788c0,0.03298 0,0.09896 0,0.13192c0,0.06598 0,0.13193 0,0.19791c0,0.06595 0,0.09894 0,0.19788c0,0.03298 0.0101,0.08111 -0.03299,0.09893c-0.03048,0.01261 -0.03298,0 -0.06597,0c-0.03297,0 -0.00967,-0.00964 -0.03297,-0.03296c-0.02333,-0.02331 -0.06597,0 -0.06597,0c0,-0.03299 -0.00965,-0.04266 -0.03298,-0.06597c-0.02331,-0.02332 -0.03298,-0.06595 -0.03298,-0.13193c0,-0.06595 -0.04813,-0.08884 -0.06596,-0.13193c-0.02523,-0.06094 0,-0.09894 0,-0.13193c0,-0.03296 0.05163,-0.07092 -0.03299,-0.13192c-0.02675,-0.01929 -0.03868,-0.02811 -0.06597,-0.06595c-0.04312,-0.05985 -0.03297,-0.06598 -0.06596,-0.13193c-0.03297,-0.06595 -0.07368,-0.10397 -0.09894,-0.16492c-0.01785,-0.04306 -0.06596,-0.06595 -0.09894,-0.09894c-0.03299,-0.03299 -0.03299,-0.03299 -0.03299,-0.06594c0,0 -0.03297,0 -0.06596,0c-0.06596,0 -0.13695,-0.00776 -0.19789,-0.03299c-0.0862,-0.03571 -0.13193,-0.09894 -0.1649,-0.09894c-0.09896,0 -0.23129,-0.02771 -0.26386,-0.03299c-0.10295,-0.01672 -0.13192,-0.06598 -0.23086,-0.06598c0,0 -0.03299,0 -0.13193,0c-0.03299,0 -0.13193,0 -0.16492,0c-0.06595,0 -0.13191,0 -0.19787,0c-0.06597,0 -0.16492,0 -0.23088,0c-0.06597,0 -0.12612,0.01605 -0.19789,0.03299c-0.03209,0.00757 -0.12182,0.01514 -0.16491,0.03299c-0.06094,0.02524 -0.09893,0.03299 -0.13192,0.03299c-0.06597,0 -0.09894,0 -0.16491,0.03296c-0.06596,0.03299 -0.09314,0.04904 -0.16491,0.06598c-0.03209,0.00756 -0.09894,0.03299 -0.1649,0.03299c-0.06597,0 -0.13193,0.06594 -0.16491,0.06594c-0.06596,0 -0.07562,0.04267 -0.09895,0.06598c-0.04665,0.04663 -0.06596,0 -0.09894,0c0,0 -0.01567,0.00492 -0.03299,0.03296c-0.03877,0.06275 -0.11929,0.06848 -0.13192,0.09897c-0.01786,0.04306 -0.0709,0.04862 -0.09894,0.06595c-0.06273,0.03876 -0.06597,0.06595 -0.09896,0.09894c-0.03297,0.03299 -0.06848,0.0863 -0.09893,0.09894c-0.04309,0.01785 -0.03298,0.06597 -0.09894,0.13192c0,0 -0.03549,0.02039 -0.06597,0.03299c-0.0431,0.01785 -0.06684,0.09137 -0.09895,0.09894c-0.07178,0.01694 -0.0787,0.06326 -0.1649,0.09897c-0.03047,0.01263 -0.03299,0.03296 -0.06596,0.03296c0,0 0,0 -0.03299,0c0,0 -0.00968,-0.00965 -0.03298,-0.03296c-0.02333,-0.02332 -0.06596,-0.03299 -0.06596,-0.03299c-0.03299,-0.03299 -0.06597,-0.06598 -0.09896,-0.06598c-0.03297,0 -0.03297,0 -0.03297,-0.03296c0,0 -0.03297,0 -0.03297,0c0,-0.03299 -0.03299,-0.03299 -0.06597,-0.03299c-0.03299,0 -0.06596,0 -0.13192,0c-0.03299,0 -0.06015,-0.01605 -0.13193,-0.03299c-0.03211,-0.00757 -0.06597,0 -0.16492,0c-0.03297,0 -0.13193,-0.03299 -0.19788,-0.03299c-0.06596,0 -0.16491,0 -0.19789,0c-0.06596,0 -0.13192,0 -0.16491,0c-0.09894,0 -0.09894,0 -0.16491,0c-0.06596,0 -0.09895,0 -0.19789,0c-0.03297,0 -0.09893,0 -0.1649,0c-0.06596,0 -0.13193,0 -0.19789,0c-0.06596,0 -0.13193,0 -0.16492,0c-0.03297,0 -0.06596,0 -0.13192,0c0,0 -0.09894,0 -0.13192,0c-0.06596,0 -0.13192,0 -0.16491,0c-0.09894,0 -0.1649,0 -0.23087,0c-0.03299,0 -0.09895,0 -0.13193,0c-0.06596,0 -0.13192,0 -0.19789,0c-0.03297,0 -0.06596,0 -0.13192,0c-0.03298,0 -0.03298,0 -0.06597,0c0,0 -0.02287,-0.01513 -0.06596,-0.03296c-0.06095,-0.02523 -0.05625,-0.01141 -0.13193,-0.06598c-0.05983,-0.04312 -0.09982,-0.02542 -0.13193,-0.03298c-0.07176,-0.01694 -0.06596,-0.03296 -0.06596,-0.03296c0,-0.03299 -0.04263,-0.00968 -0.06595,-0.03299c-0.02333,-0.02332 -0.04265,-0.04267 -0.06596,-0.06598c-0.0233,-0.02332 -0.04265,-0.04264 -0.06597,-0.06595c-0.02333,-0.02332 -0.03299,-0.06595 -0.06596,-0.06595c0,0 -0.00966,0.02332 -0.03299,0c-0.02333,-0.02331 -0.03297,-0.03299 -0.03297,-0.03299c0,0 0,-0.03299 0,-0.03299c0,-0.03299 0,-0.06595 -0.03299,-0.06595c0,0 -0.00966,-0.00967 -0.03298,-0.03299c-0.02333,-0.02331 0,-0.06598 0,-0.09893c0,0 0,0 0,0c0,0 0,0 0,0c0,0 0,0 0,0l0,0"/>
  <ellipse fill="#ffffff" stroke="#000" stroke-width="0.5" stroke-opacity="null" cx="27.94833" cy="131.84809" id="svg_117"/>
  <ellipse fill="#ffffff" stroke="#000" stroke-width="0.5" stroke-opacity="null" cx="30.25703" cy="134.78344" id="svg_118"/>
  <ellipse fill="#ffffff" stroke="#ffffff" stroke-width="0.5" cx="28.08025" cy="131.84809" id="svg_119"/>
  <ellipse fill="#ffffff" stroke-width="0" cx="27.87459" cy="132.13969" id="svg_120" rx="0.24039" ry="0.25687" stroke="#ffffff"/>
  <path fill="#000000" stroke="#000" stroke-width="0.5" stroke-opacity="null" id="svg_121" d="m31.54852,109.5196c0,0 -0.01828,0.00458 0,0.03873c0.06588,0.12311 0.18634,0.16013 0.2711,0.27109c0.07435,0.09735 0.13364,0.21112 0.23237,0.30984c0.09874,0.09876 0.14385,0.16315 0.23238,0.27112c0.03473,0.04236 0.16213,0.14301 0.23238,0.19364c0.13331,0.0961 0.19365,0.23239 0.27112,0.30984c0.03872,0.03873 0.1589,0.15128 0.19364,0.19367c0.08852,0.108 0.15491,0.19363 0.23238,0.27108c0.07745,0.07746 0.15492,0.19367 0.23238,0.30985c0.07745,0.11618 0.16229,0.18905 0.23237,0.30984c0.04346,0.07489 0.13634,0.16745 0.19365,0.23236c0.09242,0.10468 0.15492,0.19367 0.23238,0.27112c0.07747,0.07746 0.12961,0.10477 0.19365,0.19364c0.05064,0.07028 0.03872,0.11621 0.11619,0.19366c0.03873,0.03873 0.07746,0.07745 0.07746,0.07745c0,0.03873 0.05648,0.06559 0.07745,0.11619c0.02965,0.07159 0.07747,0.15493 0.07747,0.15493c0,0.03873 0.03873,0.07746 0.03873,0.07746c0,0 0.00908,-0.00589 0.03872,-0.07746c0.04193,-0.10119 0.13231,-0.18441 0.19365,-0.30984c0.0538,-0.11002 0.06932,-0.19669 0.1162,-0.30985c0.03314,-0.08001 0.06264,-0.15786 0.07745,-0.19363c0.02097,-0.0506 0.11299,-0.09247 0.15492,-0.19367c0.02965,-0.07156 0.01638,-0.13354 0.07746,-0.23236c0.04553,-0.07367 0.14761,-0.0827 0.23237,-0.19366c0.07434,-0.09732 0.13607,-0.17792 0.19365,-0.27109c0.0644,-0.10419 0.15174,-0.16992 0.19365,-0.27112c0.01482,-0.03576 0.07747,-0.07745 0.07747,-0.11618c0,-0.03872 0.07745,-0.07748 0.07745,-0.07748c0.03873,-0.03873 0.06264,-0.08042 0.07746,-0.11618c0.02096,-0.0506 0.10939,-0.04251 0.15492,-0.11618c0.02036,-0.03293 0.03874,-0.07743 0.1162,-0.15491c0.03874,-0.03876 0.06637,-0.08569 0.1549,-0.19366c0.03473,-0.04236 0.07747,-0.07746 0.15493,-0.15491c0.03872,-0.03873 0.05494,-0.09369 0.11619,-0.15494c0.06124,-0.06125 0.06554,-0.04593 0.11618,-0.11618c0.06406,-0.08887 0.1162,-0.07745 0.15492,-0.15491c0.03873,-0.07748 0.09841,-0.07956 0.1162,-0.15493c0.0199,-0.08429 0.11618,-0.07746 0.15491,-0.15491c0.03874,-0.07746 0.05215,-0.06604 0.11619,-0.15491c0.05065,-0.07028 0.03673,-0.08905 0.07746,-0.15494c0.04553,-0.07367 0.0888,-0.05008 0.11619,-0.07745c0.02739,-0.02737 0.03873,-0.07745 0.07746,-0.15491c0,0 0.03872,0 0.03872,0c0,-0.03875 0,-0.03875 -0.03872,-0.07748c-0.03873,-0.03873 -0.08902,-0.03671 -0.15493,-0.07746c-0.07367,-0.04553 -0.04251,-0.10937 -0.11618,-0.1549c-0.03294,-0.02036 -0.07745,-0.03873 -0.11619,-0.07746c-0.07747,-0.07748 -0.13394,-0.10434 -0.15491,-0.15493c-0.01482,-0.03577 -0.07747,-0.07746 -0.07747,-0.07746c-0.07745,-0.07745 -0.02269,-0.10013 -0.07745,-0.1549c-0.02739,-0.02738 -0.06264,-0.08042 -0.07747,-0.11622c-0.02097,-0.05059 -0.06264,-0.08041 -0.07745,-0.11618c-0.02097,-0.05059 -0.08324,-0.05709 -0.11618,-0.07745c-0.07367,-0.04553 -0.07067,-0.08124 -0.1162,-0.15491c-0.02037,-0.03296 -0.0571,-0.12201 -0.07745,-0.15493c-0.04554,-0.07367 -0.0656,-0.13395 -0.1162,-0.15491c-0.03578,-0.01483 -0.03873,-0.07746 -0.1162,-0.15494c-0.03872,-0.03873 -0.09521,-0.10431 -0.11618,-0.15491c-0.01481,-0.03576 -0.06556,-0.08465 -0.11619,-0.1549c-0.03203,-0.04444 -0.08466,-0.10431 -0.15491,-0.15494c-0.04445,-0.03201 -0.09088,-0.10477 -0.15492,-0.19364c-0.05063,-0.07025 -0.03873,-0.11618 -0.07747,-0.11618c0,0 -0.07745,-0.03875 -0.07745,-0.07748c0,-0.03873 -0.05945,-0.05075 -0.1162,-0.11618c-0.08025,-0.0925 -0.12775,-0.10925 -0.19363,-0.23236c-0.0183,-0.03418 0,-0.03876 -0.03875,-0.07749c-0.03872,-0.03872 -0.11618,-0.11618 -0.1549,-0.1549c-0.03874,-0.03873 -0.09523,-0.06559 -0.1162,-0.11618c-0.01481,-0.03577 -0.04167,-0.10138 -0.07745,-0.11621c-0.05062,-0.02097 -0.03874,-0.03873 -0.03874,-0.03873c-0.03873,-0.03873 -0.03873,-0.07745 -0.03873,-0.07745c0,0 0,0 0,0c0,0.03872 -0.02391,0.08041 -0.03873,0.11618c-0.04191,0.10122 -0.1353,0.11151 -0.15492,0.23239c-0.00621,0.03824 -0.07745,0.11618 -0.07745,0.1549c0,0.03873 -0.05649,0.06562 -0.07746,0.11622c-0.01481,0.03576 0,0.07745 -0.03874,0.07745c-0.03873,0 -0.06264,0.08041 -0.07745,0.11618c-0.02097,0.0506 -0.1162,0.11618 -0.15493,0.15491c-0.03874,0.03875 -0.08415,0.07177 -0.11618,0.11621c-0.05062,0.07025 -0.10939,0.08124 -0.15492,0.1549c-0.04072,0.06589 -0.02682,0.08466 -0.07745,0.15491c-0.06406,0.0889 -0.08655,0.08338 -0.1162,0.15494c-0.02096,0.0506 -0.10138,0.08041 -0.11619,0.11618c-0.02097,0.0506 -0.08466,0.10428 -0.15491,0.15494c-0.04443,0.03204 -0.12961,0.10476 -0.19365,0.19363c-0.05063,0.07025 -0.09369,0.09366 -0.15492,0.15491c-0.06125,0.06125 -0.1043,0.08469 -0.15493,0.15494c-0.03202,0.04443 -0.09817,0.05075 -0.15492,0.11618c-0.08024,0.0925 -0.11618,0.11618 -0.1549,0.1549c-0.03875,0.03876 -0.09369,0.09372 -0.15493,0.15494c-0.06123,0.06122 -0.12613,0.10831 -0.15492,0.15491c-0.06438,0.10419 -0.09367,0.17117 -0.15492,0.23239c-0.06124,0.06122 -0.17113,0.09366 -0.23238,0.15491c-0.06123,0.06122 -0.02269,0.10013 -0.07745,0.15491c-0.05477,0.05477 -0.13396,0.02688 -0.15492,0.07748c-0.01482,0.03577 -0.0571,0.08325 -0.07746,0.11618c-0.04553,0.07367 -0.0656,0.09521 -0.11619,0.11618c-0.03579,0.01483 -0.04168,0.0239 -0.07746,0.03873c-0.0506,0.02096 -0.02685,0.09524 -0.07745,0.11621c-0.0358,0.01483 -0.03874,0.03872 -0.03874,0.03872c0,0 -0.06612,0.01136 -0.03873,0.03873c0.02739,0.02738 0.07747,0 0.1162,0c0.03872,0 0.07745,0 0.07745,0c0.03873,0 0.07745,0 0.07745,0c0,0 0,0 0.03875,0c0.07745,0 0.11618,-0.03873 0.11618,-0.03873l0.03872,0l0,0l0,0"/>
  <path fill="#000000" stroke="#000" stroke-width="0.5" stroke-opacity="null" id="svg_122" d="m37.74526,134.11296c0,0 0.03871,0 0.11618,-0.07749c0.03875,-0.03872 0.1162,-0.11618 0.19365,-0.19363c0.07747,-0.07745 0.11618,-0.11618 0.15492,-0.15494c0.03873,-0.03872 0.05007,-0.05008 0.07746,-0.07745c0.02739,-0.02741 0.07747,-0.07746 0.07747,-0.07746c0.03872,-0.03872 0.10428,-0.08465 0.15492,-0.1549c0.03203,-0.04444 0.12338,-0.14304 0.19365,-0.19367c0.08887,-0.06405 0.10426,-0.12338 0.15491,-0.19363c0.06405,-0.08887 0.07545,-0.12775 0.11619,-0.19367c0.04553,-0.07366 0.05557,-0.12204 0.15492,-0.19363c0.03142,-0.02264 0.07746,-0.03873 0.15491,-0.11618c0.03874,-0.03876 0.08058,-0.13507 0.15492,-0.23239c0.08477,-0.11096 0.15493,-0.11618 0.19365,-0.15491c0.07747,-0.07748 0.1162,-0.11621 0.15493,-0.19366c0.03872,-0.07746 0.10427,-0.12339 0.15492,-0.19364c0.03203,-0.04443 0.11618,-0.11621 0.19365,-0.19366c0.07745,-0.07746 0.11618,-0.15491 0.15491,-0.19364c0.07746,-0.07745 0.09368,-0.09372 0.15492,-0.15493c0.06123,-0.06122 0.07745,-0.11618 0.07745,-0.15491c0,-0.03873 -0.00889,-0.03976 0,-0.07745c0.0199,-0.08429 0.07747,-0.15494 0.07747,-0.19367c0,-0.07745 0,-0.11618 0,-0.15491c0,0 0.05476,-0.0614 0,-0.11618c-0.02739,-0.02737 -0.05008,-0.01135 -0.07747,-0.03872c-0.02739,-0.02738 -0.10934,-0.01886 -0.19365,-0.03876c-0.03769,-0.00891 -0.08879,-0.01135 -0.11618,-0.03873c-0.02739,-0.02737 -0.03873,-0.03872 -0.07745,-0.03872c-0.03874,0 -0.05008,-0.01136 -0.07747,-0.03873c-0.02739,-0.02738 -0.09367,-0.05496 -0.15492,-0.11618c-0.06124,-0.06122 -0.11617,-0.15491 -0.15491,-0.19367c-0.07745,-0.07748 -0.13396,-0.1043 -0.15492,-0.1549c-0.02965,-0.07157 -0.08324,-0.13456 -0.1162,-0.15491c-0.07367,-0.04553 -0.08324,-0.13458 -0.11618,-0.15494c-0.07367,-0.04553 -0.06265,-0.11914 -0.07747,-0.15491c-0.02096,-0.05059 -0.09521,-0.06558 -0.11618,-0.11618c-0.01481,-0.03576 -0.03873,-0.03872 -0.03873,-0.11621c0,-0.03872 -0.07428,-0.05371 -0.11619,-0.1549c-0.02965,-0.07157 -0.0091,-0.12207 -0.03873,-0.19364c-0.02095,-0.05063 -0.1073,-0.07852 -0.11619,-0.11621c-0.0199,-0.08429 0.01603,-0.10013 -0.03873,-0.15491c-0.05476,-0.05478 -0.0804,-0.06262 -0.11618,-0.07745c-0.05061,-0.02097 -0.03874,-0.07748 -0.07747,-0.11621c-0.03873,-0.03873 -0.07065,-0.04251 -0.11618,-0.11618c-0.02036,-0.03293 -0.0072,-0.06555 -0.07747,-0.11618c-0.04443,-0.03201 -0.07744,-0.11618 -0.11618,-0.15494c-0.07745,-0.07748 -0.1162,-0.11618 -0.1162,-0.11618c-0.03872,-0.03873 -0.03672,-0.05029 -0.07745,-0.11618c-0.04553,-0.07367 -0.07747,-0.03873 -0.11619,-0.07745c-0.03873,-0.03873 -0.0804,-0.10138 -0.11618,-0.11621c-0.05062,-0.02097 -0.1094,-0.08124 -0.15493,-0.15491c-0.02035,-0.03293 -0.05757,-0.03189 -0.07747,-0.11618c-0.00889,-0.03769 -0.04544,-0.03302 -0.07745,-0.07746c-0.05064,-0.07028 -0.0804,-0.10138 -0.11618,-0.11621c-0.05061,-0.02096 -0.03874,-0.11618 -0.07747,-0.1549c-0.03873,-0.03873 -0.08879,-0.08881 -0.11618,-0.11618c-0.02739,-0.02738 -0.03554,-0.09247 -0.07747,-0.19367c-0.01481,-0.03577 -0.05755,-0.03189 -0.07745,-0.11618c-0.0089,-0.03769 -0.05651,-0.06558 -0.07747,-0.11618c-0.01482,-0.03577 -0.06264,-0.08044 -0.07745,-0.11621c-0.02097,-0.0506 -0.07746,-0.07745 -0.11618,-0.11618c-0.03875,-0.03873 -0.03304,-0.1229 -0.07747,-0.15491c-0.07026,-0.05063 -0.10137,-0.08044 -0.11618,-0.11621c-0.02097,-0.0506 -0.07747,-0.07745 -0.15493,-0.15491c-0.03872,-0.03872 -0.06556,-0.04593 -0.11619,-0.11618c-0.03203,-0.04443 -0.07746,-0.07745 -0.07746,-0.07745c-0.03872,0 -0.11619,-0.07748 -0.11619,-0.11621c0,0 -0.03873,-0.03873 -0.03873,-0.03873c-0.03873,0 -0.06837,0.00589 -0.03873,0.07746c0.02097,0.05059 0.07746,0.07748 0.07746,0.19366c0,0.03873 0.02682,0.08466 0.07747,0.15491c0.03203,0.04443 0.07745,0.03872 0.07745,0.11618c0,0 0,0.03875 0.03873,0.07748c0.03872,0.03873 0.09523,0.10431 0.11619,0.15491c0.02965,0.07156 0.06554,0.16211 0.11618,0.23239c0.03203,0.04443 0.04169,0.06262 0.07747,0.07745c0.0506,0.02097 0.03873,0.07746 0.07746,0.11618c0,0 0.00474,-0.00256 -0.03873,-0.07745c-0.07008,-0.12076 -0.17777,-0.24142 -0.2711,-0.3873c-0.13367,-0.20889 -0.27864,-0.38299 -0.3873,-0.58093c-0.08336,-0.15186 -0.13889,-0.25507 -0.19365,-0.30985c-0.02739,-0.02737 -0.09525,-0.06558 -0.1162,-0.11621c-0.01481,-0.03576 -0.03872,-0.03872 -0.07745,-0.07745c-0.07747,-0.07745 -0.10429,-0.12338 -0.15492,-0.19363c-0.03203,-0.04444 -0.07746,-0.03873 -0.07746,-0.03873c0.03873,0 0.12357,0.11157 0.19365,0.23236c0.08695,0.14981 0.20803,0.26132 0.30983,0.42603c0.09107,0.14736 0.13111,0.24679 0.23238,0.38729c0.06405,0.08887 0.14679,0.19672 0.19365,0.30985c0.03314,0.08002 0.10136,0.15787 0.11619,0.19366c0.02097,0.0506 0.10939,0.08124 0.15493,0.15491c0.02035,0.03293 0.05006,0.08881 0.07745,0.11618c0.05476,0.05478 0.07175,0.04544 0.1162,0.07745c0.07025,0.05063 0.11618,0.03873 0.11618,0.07749c0,0 0.04446,-0.04761 0,-0.15494c-0.04192,-0.1012 -0.13019,-0.2442 -0.23238,-0.42602c-0.09486,-0.16883 -0.17792,-0.36811 -0.2711,-0.54221c-0.07755,-0.14487 -0.15493,-0.23239 -0.19365,-0.27112c-0.07747,-0.07745 -0.06961,-0.12613 -0.1162,-0.15491c-0.10417,-0.06439 -0.16745,-0.09762 -0.23237,-0.15493c-0.10468,-0.09241 -0.20568,-0.18274 -0.30985,-0.30982c-0.08853,-0.108 -0.1324,-0.2099 -0.19363,-0.27112c-0.06125,-0.06124 -0.17376,-0.10934 -0.19365,-0.19363c-0.00891,-0.03772 -0.03874,-0.07748 -0.03874,-0.07748c-0.03873,0 -0.01134,-0.05008 -0.03873,-0.07746c-0.02739,-0.02737 -0.03873,-0.03872 -0.07746,-0.07745c-0.03872,-0.03873 -0.07746,-0.07745 -0.07746,-0.07745c-0.03873,0 -0.04544,-0.03302 -0.07746,-0.07746c-0.05064,-0.07028 -0.06264,-0.08044 -0.07745,-0.11621c-0.02097,-0.0506 -0.02686,-0.09521 -0.07747,-0.11618c-0.03578,-0.01483 -0.09522,-0.02686 -0.11618,-0.07745c-0.01482,-0.03577 -0.05214,-0.06604 -0.1162,-0.15494c-0.05063,-0.07025 -0.09732,-0.13919 -0.15492,-0.23236c-0.06439,-0.10416 -0.07745,-0.23239 -0.15491,-0.30985c-0.07747,-0.07745 -0.13301,-0.23822 -0.23237,-0.30984c-0.06285,-0.04529 -0.1162,-0.03873 -0.1162,-0.11618c0,-0.03873 -0.05006,-0.01136 -0.07745,-0.03873c-0.02739,-0.02737 -0.06265,-0.11914 -0.07747,-0.15491c-0.04192,-0.10122 -0.15492,-0.15493 -0.15492,-0.15493c0,0 0.03874,0.07745 0.11619,0.19366c0.07746,0.11618 0.17269,0.22049 0.19365,0.27109c0.02965,0.07159 0.02391,0.08044 0.03873,0.11621c0.02096,0.0506 0.03873,0.03873 0.07747,0.03873c0,0 0,0 0,0.03872c0,0.03873 0.01883,0.07062 0.03872,0.15491c0.0178,0.07538 0,0.11618 0.03873,0.11618c0,0 0.05007,0.01138 0.07745,0.03876c0.02739,0.02737 0,0.03872 0,0.03872c0,-0.03872 -0.0818,-0.07431 -0.19364,-0.23239c-0.08066,-0.11398 -0.16799,-0.20566 -0.23238,-0.30984c-0.05759,-0.09317 -0.16486,-0.14704 -0.19365,-0.19364c-0.06438,-0.10418 -0.11618,-0.11618 -0.11618,-0.11618c0,-0.03872 0,-0.07748 -0.03873,-0.11621c-0.03874,-0.03872 -0.06556,-0.08465 -0.11619,-0.1549c-0.03203,-0.04444 -0.06557,-0.08466 -0.1162,-0.15491c-0.03203,-0.04447 -0.03873,-0.07749 -0.07745,-0.11621c-0.03873,-0.03873 -0.02686,-0.09522 -0.07746,-0.11618c-0.03579,-0.01483 -0.01838,-0.04453 -0.03874,-0.07746c-0.04553,-0.07367 -0.07745,-0.07745 -0.11618,-0.11618c-0.03874,-0.03875 -0.01134,-0.08883 -0.03872,-0.11621c-0.02739,-0.02737 -0.06266,-0.04169 -0.07747,-0.07745c-0.02097,-0.0506 -0.07746,-0.07746 -0.07746,-0.11618c0,0 -0.03872,-0.03873 -0.07745,-0.07746c0,0 -0.00295,-0.02392 -0.03874,-0.03875c-0.0506,-0.02097 -0.02686,-0.09522 -0.07746,-0.11618c-0.03578,-0.01484 -0.03872,-0.03873 -0.07745,-0.07746c-0.03874,-0.03872 -0.03874,-0.07745 -0.03874,-0.07745c-0.07746,-0.03873 -0.0804,-0.10135 -0.11618,-0.11618c-0.05062,-0.02097 -0.03873,-0.03876 -0.07746,-0.07749c-0.03874,-0.03872 -0.04168,-0.06262 -0.07747,-0.07745c-0.05059,-0.02096 -0.03872,-0.03873 -0.03872,-0.03873c-0.03873,-0.03872 -0.06558,-0.13394 -0.1162,-0.1549c-0.03578,-0.01483 -0.03872,-0.03873 -0.07745,-0.07746c-0.03874,-0.03875 -0.08881,-0.05008 -0.1162,-0.07748c-0.02739,-0.02738 -0.01133,-0.05008 -0.03872,-0.07745c-0.02739,-0.02738 -0.02686,-0.05649 -0.07746,-0.07746c-0.03578,-0.01483 -0.03872,-0.03872 -0.03872,-0.07745c0,0 0,-0.03873 -0.03873,-0.07746c0,0 -0.03873,0 -0.07747,-0.03875c-0.03873,-0.03873 -0.03873,-0.07746 -0.03873,-0.11618c0,0 -0.01837,-0.0058 -0.03872,-0.03873c-0.04554,-0.07367 -0.1162,-0.07745 -0.1162,-0.11618c0,0 -0.04593,-0.06555 -0.11618,-0.11618c-0.04445,-0.03204 -0.0565,-0.06561 -0.07747,-0.11621c-0.01481,-0.03577 -0.03873,-0.03873 -0.07745,-0.07746c0,0 -0.03873,0 -0.03873,0c0,-0.03872 0,-0.07745 0,-0.07745c-0.03874,-0.03873 -0.04169,-0.06262 -0.07747,-0.07745c-0.0506,-0.02097 -0.05006,-0.05008 -0.07745,-0.07746c-0.02741,-0.0274 0,-0.07748 -0.03873,-0.07748c0,0 0.01482,-0.00296 0,-0.03873c-0.02096,-0.0506 -0.07747,-0.03872 -0.07747,-0.07745c0,-0.03873 0.01778,-0.02686 0.03875,-0.07745c0.01481,-0.03577 0.01133,-0.08881 0.03872,-0.11618c0.02739,-0.02738 0.01134,-0.05011 0.03873,-0.07749c0.02739,-0.02737 0.05006,-0.05008 0.07745,-0.07745c0.02739,-0.02738 0.07747,-0.03873 0.07747,-0.07746c0,-0.03872 0.03873,-0.07745 0.07745,-0.07745c0,0 0.05007,-0.05008 0.07746,-0.07745c0.02739,-0.02738 0.00294,-0.06266 0.03874,-0.07749c0.0506,-0.02096 0.03873,-0.07745 0.07745,-0.11618c0.03873,-0.03872 0.01134,-0.05008 0.03873,-0.07745c0.02739,-0.02738 0.06265,-0.04169 0.07747,-0.07745c0.02097,-0.0506 0.07745,-0.03873 0.07745,-0.07746c0,0 0.05649,-0.02688 0.07746,-0.07748c0.01481,-0.03577 0.0565,-0.02686 0.07747,-0.07746c0.01481,-0.03576 0.02685,-0.09521 0.07745,-0.11618c0.03578,-0.01483 0.07745,-0.03872 0.07745,-0.03872c0.03875,-0.03873 0.07747,-0.11618 0.1162,-0.11618c0.03873,0 0.04542,-0.03305 0.07745,-0.07749c0.05065,-0.07025 0.08881,-0.0888 0.1162,-0.11618c0.02739,-0.02737 0.0319,-0.09628 0.11619,-0.11618c0.03769,-0.00891 0.05649,0.01187 0.07746,-0.03873c0.01481,-0.03576 0.04167,-0.06262 0.07745,-0.07745c0.05061,-0.02096 0.03873,-0.03876 0.03873,-0.03876c0.03874,-0.03872 0.0565,-0.02685 0.07747,-0.07745c0.01481,-0.03577 0.03872,-0.03873 0.07745,-0.07745c0,0 -0.02739,-0.01136 0,-0.03873c0.02739,-0.02738 0.02686,-0.05649 0.07747,-0.07745c0.03578,-0.01484 0.07745,-0.03873 0.07745,-0.03873c0,-0.03873 0.01134,-0.08884 0.03873,-0.11621c0.02739,-0.02738 0.07747,-0.03873 0.1162,-0.07746c0,0 0.02391,-0.04168 0.03872,-0.07745c0.02097,-0.0506 0.08879,-0.05008 0.11618,-0.07745c0.05477,-0.05478 0.03191,-0.13504 0.1162,-0.15494c0.03769,-0.00891 0.04167,-0.06262 0.07745,-0.07745c0.05062,-0.02097 0.09523,-0.02686 0.1162,-0.07746c0.01481,-0.03576 0.01133,-0.0888 0.03872,-0.11618c0.02739,-0.02737 0.09523,0.01187 0.1162,-0.03873c0.01482,-0.03576 0.01132,-0.0888 0.03873,-0.11621c0.02739,-0.02737 0.09521,0.01188 0.11618,-0.03872c0.01481,-0.03577 0.01135,-0.08881 0.03874,-0.11618c0.05476,-0.05478 0.07745,-0.03873 0.11618,-0.07746c0.03873,-0.03872 0.03873,-0.07745 0.07747,-0.07745c0,0 0.02389,-0.04169 0.03873,-0.07748c0.02096,-0.0506 0.03872,-0.07746 0.03872,-0.07746c0.03873,0 0.01134,-0.05008 0.03873,-0.07745c0.02739,-0.02738 0.05008,-0.05008 0.07747,-0.07746c0.02739,-0.02737 0.02391,-0.00296 0.03872,-0.03872c0.02097,-0.0506 0.07746,-0.07746 0.11618,-0.11618c0,0 0.03875,-0.03876 0.03875,-0.07749c0,0 0.01133,-0.01135 0.03872,-0.03872c0.02739,-0.02738 0.03873,-0.03873 0.07746,-0.03873c0,0 0.03872,0 0.03872,-0.03873c0,0 0.00295,-0.02389 0.03873,-0.03872c0.05061,-0.02097 0.07747,-0.07746 0.1162,-0.07746c0,0 -0.02739,-0.05008 0,-0.07745c0.02739,-0.02738 0.05006,-0.05011 0.07745,-0.07749c0.02739,-0.0274 0.03874,0 0.07747,0c0,0 0,-0.03872 0,-0.03872c0,0 0,0 0.03873,0c0,0 0.03872,0 0.07745,0c0,0 0.03874,0 0.03874,0.03872c0,0 0.01134,0.01136 0.03873,0.03873c0.05479,0.05478 0.03873,0.07749 0.03873,0.11621c0,0 0.02391,0.04169 0.03872,0.07746c0.02097,0.05059 0.03873,0.07745 0.03873,0.11618c0,0 -0.01482,0.04168 0,0.07745c0.02095,0.05063 0.06557,0.08469 0.11619,0.15494c0.03203,0.04443 0.03873,0.03872 0.03873,0.03872c0.03873,0.03873 0.07746,0.07746 0.1162,0.11618c0.03872,0.03873 0.05006,0.01136 0.07745,0.03873c0.02739,0.02738 0.01134,0.05008 0.03873,0.07746c0.02739,0.02737 0.07747,0.03875 0.07747,0.03875c0,0.03873 0.03872,0.03873 0.03872,0.03873c0.03873,0.03873 0.05007,0.05008 0.07746,0.07745c0.02739,0.02738 0.03872,0.03873 0.03872,0.07746c0,0 0.05651,0.06558 0.07747,0.11618c0.01482,0.03576 0.05007,0.01135 0.07746,0.03872c0.05479,0.05478 0.05648,0.10434 0.07745,0.15494c0.01482,0.03577 0.07747,0.11618 0.07747,0.15491c0,0 0.05006,0.05008 0.07745,0.07745c0.0548,0.05478 0,0.07749 0.03873,0.11621c0.03874,0.03873 0.04544,0.07175 0.07747,0.11618c0.05063,0.07026 0.09521,0.10431 0.11618,0.15491c0.02965,0.07156 0.08478,0.13229 0.11619,0.15494c0.09935,0.07159 0.10428,0.16211 0.15493,0.23236c0.03202,0.04443 0.06553,0.08466 0.11618,0.15494c0.03201,0.04443 0.09088,0.06604 0.15492,0.1549c0.05063,0.07026 0.07176,0.1616 0.1162,0.19364c0.07025,0.05066 0.06141,0.13888 0.11618,0.19366c0.02739,0.02738 0.13395,0.06559 0.15492,0.11618c0.01481,0.03577 0.04593,0.10428 0.11618,0.15494c0.04443,0.03204 0.07747,0.07746 0.11619,0.11618c0.07746,0.07746 0.08899,0.13992 0.19365,0.23236c0.06493,0.05735 0.14922,0.16165 0.19365,0.19367c0.07025,0.05063 0.11913,0.10135 0.15493,0.11618c0.05059,0.02096 0.03872,0.07745 0.07745,0.11618c0.03874,0.03876 0.03873,0.03876 0.03873,0.03876c0.03872,0.03872 0.03872,0.07745 0.03872,0.11618c0,0.03872 0,0.03872 0,0.03872c0,0.03873 0,0.07746 0,0.07746c0,0.03872 -0.07745,0.07745 -0.11618,0.07745c0,0 -0.01134,0.01135 -0.03872,0.03873c-0.05478,0.05478 -0.0656,0.05652 -0.1162,0.07748c-0.03578,0.01483 -0.01134,0.01135 -0.03873,0.03873c-0.02739,0.02737 -0.01133,0.01135 -0.03872,0.03872c-0.02739,0.02741 -0.03875,0 -0.03875,0.03873c0,0.03873 -0.00669,0.07175 -0.03872,0.11618c-0.05063,0.07025 -0.09656,0.11148 -0.11618,0.23239c-0.0062,0.03824 -0.05757,0.07062 -0.07747,0.15491c-0.0089,0.03769 0,0.07745 -0.03873,0.11618c-0.03873,0.03873 -0.07065,0.04254 -0.11618,0.11621c-0.02035,0.03293 0.01482,0.04169 0,0.07746c-0.02097,0.05059 -0.08325,0.01837 -0.1162,0.03872c-0.07366,0.04553 -0.03872,0.11618 -0.03872,0.11618c0,0 0,0.03873 -0.03873,0.03873c-0.03874,0 -0.03874,0 -0.03874,0.03873c0,0.03875 -0.01134,0.05011 -0.03873,0.07748c-0.02739,0.02737 -0.03872,0.03873 -0.03872,0.03873c0,0.03872 0,0.11618 0,0.11618c0,0.03872 0,0.03872 0,0.03872c0,0.03873 0,0.07746 0,0.11618c0,0 0,0.03873 0,0.03873c0.03872,0.03876 0.0319,0.13504 0.11619,0.15494c0.03769,0.00891 0.02391,0.04169 0.03873,0.07745c0.02096,0.0506 0.06558,0.05649 0.11618,0.07746c0.0358,0.01483 0.02392,0.04168 0.03874,0.07745c0.02097,0.0506 0.01134,0.08884 0.03873,0.11621c0.02739,0.02738 0.04167,0.0239 0.07745,0.03873c0.0506,0.02096 0.03873,0.07745 0.03873,0.07745c0,0 0.01135,0.05008 0.03874,0.07745c0.02739,0.02738 0.03873,0.07746 0.07745,0.07746c0.03873,0 0.03873,0.03873 0.03873,0.07748c0,0.03873 0.04593,0.06555 0.1162,0.11618c0.04443,0.03202 0.01133,0.08881 0.03872,0.11618c0.02739,0.02738 0.03873,0.03873 0.07746,0.07746c0.03872,0.03872 0.07747,0.07745 0.07747,0.07745c0,0 0.02391,0.04172 0.03872,0.07748c0.02097,0.0506 0.02269,0.10013 0.07746,0.15491c0.02739,0.02738 0.03872,0.07746 0.07746,0.07746c0,0 0.05007,0.05008 0.07746,0.07745c0.05479,0.05478 0.03872,0.07748 0.03872,0.07748c0.03873,0.03873 0.03873,0.07746 0.07746,0.11618c0.03874,0.03873 0.03874,0.03873 0.07747,0.07746c0.03872,0.03872 0.03872,0.03872 0.07745,0.07745c0.03873,0.03873 0.05008,0.01132 0.07747,0.03873c0.02739,0.02737 0.03871,0.03872 0.07745,0.07748c0.03873,0.03873 0.06264,0.08042 0.07746,0.11618c0.02096,0.0506 0.09523,0.02686 0.11619,0.07746c0.01482,0.03576 0.01134,0.05008 0.03873,0.07745c0.02739,0.02737 0.07745,0 0.07745,0.03873c0,0 0.03875,0.03872 0.07747,0.07745c0,0 0,0 0,0c0,0 0.02965,-0.00589 0,-0.07745c-0.04193,-0.1012 -0.15492,-0.19364 -0.19365,-0.30982c-0.03872,-0.11621 -0.0888,-0.20498 -0.11619,-0.23239c-0.05477,-0.05478 0.01187,-0.13394 -0.03873,-0.15491c-0.03578,-0.01483 -0.01134,-0.01135 -0.03873,-0.03872c-0.02739,-0.02738 -0.06558,-0.09525 -0.11619,-0.11621c-0.03578,-0.01484 -0.04167,0.01483 -0.07746,0c-0.05059,-0.02097 -0.05006,-0.08881 -0.07745,-0.11618c-0.02739,-0.02741 -0.01135,-0.01136 -0.03874,-0.03873c-0.02739,-0.02738 -0.07746,0 -0.07746,0c0,-0.03873 -0.05004,-0.12753 -0.07745,-0.15494c-0.05478,-0.05478 -0.07747,-0.03873 -0.07747,-0.03873c0,0 0,0.03873 0,0.03873c0.03874,0.07748 0.09053,0.16693 0.15492,0.27112c0.0864,0.13977 0.20101,0.22781 0.27111,0.34857c0.04347,0.07489 0.08468,0.14298 0.15492,0.19363c0.04445,0.03205 0.04451,0.09586 0.07747,0.11622c0.07367,0.04553 0.02269,0.10012 0.07745,0.1549c0.02739,0.02738 0.02983,0.03977 0.03873,0.07746c0.0199,0.08429 0.10728,0.07849 0.1162,0.11621c0.01989,0.08429 0.03872,0.11618 0.03872,0.11618c0.03873,0 0.04451,0.01837 0.07746,0.03872c0.07367,0.04554 0.03872,0.11619 0.07746,0.11619c0,0 -0.01481,0.04168 0,0.07745c0.02095,0.05063 0.0804,0.06265 0.11618,0.07748c0.0506,0.02097 0.03873,0.03873 0.03873,0.07746c0,0.03872 0.02687,0.05648 0.07747,0.07745c0.03578,0.01483 0.05006,-0.02737 0.07745,0c0.02739,0.02737 0,0.03873 0,0.03873c0,-0.03873 -0.10136,-0.11914 -0.11618,-0.15491c-0.02096,-0.0506 -0.02392,-0.04169 -0.03874,-0.07745c-0.02095,-0.05063 -0.07745,-0.07749 -0.11618,-0.11621c0,0 -0.03873,-0.07746 -0.03873,-0.11619c0,0 0,-0.03872 0,-0.03872c0,0 0,-0.03873 0,-0.07746c0,-0.03872 0,-0.03872 0,-0.03872c0,0 0.03977,-0.00891 0.07746,0c0.08427,0.01989 0.07745,0.03872 0.07745,0.07745c0,0.03873 0.04169,0.0239 0.07747,0.03873c0.0506,0.02096 0.07745,0.03872 0.07745,0.11618c0,0.03873 0.07067,0.00378 0.1162,0.07745c0.02036,0.03293 0.03873,0.11621 0.03873,0.11621c0,0.03873 -0.01604,0.10013 0.03872,0.15491c0.02739,0.02737 0.06264,0.04169 0.07746,0.07745c0.02096,0.0506 0.03874,0.07746 0.03874,0.07746c0,0.03872 0.05649,0.06561 0.07745,0.11621c0.01482,0.03576 0.05649,0.06558 0.07746,0.11618c0.01481,0.03577 0.05008,0.05008 0.07747,0.07745c0.02738,0.02738 0.03872,0.07746 0.07745,0.11618c0,0 0.03194,0.00382 0.07747,0.07749c0.02035,0.03293 0.05006,0.05008 0.07745,0.07745c0.02739,0.02737 -0.01187,0.05649 0.03873,0.07745c0.03578,0.01484 0.07066,0.00379 0.11619,0.07746c0.02036,0.03293 0.03193,0.00378 0.07746,0.07745c0.02035,0.03293 0.06263,0.08045 0.07745,0.11621c0.02097,0.0506 0.07747,0.07746 0.1162,0.11618c0.03872,0.03873 0.03872,0.03873 0.07745,0.07746c0.03874,0.03872 0.03874,0.07745 0.07747,0.07745c0.03873,0 0.03873,0.03873 0.03873,0.03873c0.03872,0 0.06262,0.04168 0.07745,0.07748c0.02097,0.0506 0.06265,0.08041 0.07747,0.11618c0.04191,0.1012 0.07745,0.11618 0.11618,0.11618c0.03873,0 -0.01604,0.0614 0.03873,0.11618c0.02739,0.02741 0.07746,0.03876 0.07746,0.03876c0.03873,0 0.04781,0.00589 0.07746,0.07745c0.02096,0.0506 0.05008,0.05008 0.07747,0.07746c0.02739,0.02737 0.02269,0.0614 0.07745,0.11618c0.02739,0.02737 0.0804,0.02389 0.11618,0.03872c0.05061,0.02097 0.03874,0.07746 0.03874,0.07746c0.03873,0.03875 0.07746,0.07748 0.07746,0.07748c0.03872,0.03873 0.07745,0.07746 0.07745,0.11618c0,0 0.03874,0.03873 0.03874,0.03873c0.07746,0.03873 0.11618,0.07745 0.11618,0.11618c0,0 0,0.03873 0.03873,0.03873c0,0 0.09523,0.02688 0.1162,0.07748c0.01481,0.03577 0.03872,0.07745 0.03872,0.07745c0.03873,0 0.09523,-0.01187 0.1162,0.03873c0.01481,0.03577 0,0.03873 0.03872,0.07745c0.03873,0.03873 0.08654,0.04462 0.11619,0.11618c0.02096,0.0506 0.12753,0.05011 0.15492,0.07749c0.02739,0.02737 0.05008,0.05005 0.07747,0.07745c0.02739,0.02738 0.01133,0.05008 0.03872,0.07746c0.02739,0.02737 0.03873,0 0.03873,0.03872c0,0.03873 0.02391,0.04169 0.03873,0.07746c0.02096,0.05059 0.06265,0.08041 0.07747,0.11618c0.02095,0.05063 0.03872,0.07748 0.07745,0.11621c0.03873,0.03872 0.05006,0.0888 0.07745,0.11618c0.02739,0.02737 0.03873,0 0.03873,0c0,0.07745 0.02393,0.08041 0.03874,0.11618c0.02097,0.0506 0.05007,0.01135 0.07746,0.03873c0.0274,0.0274 0,0.07748 0.03872,0.15493c0,0 0.03873,0 0.03873,0.03873c0,0.03873 0.01135,0.05008 0.03874,0.07745c0.02739,0.02738 0.03873,0.03873 0.07745,0.03873c0,0 0.03873,0.03873 0.03873,0.03873c0.03873,0.03872 0.06265,0.04168 0.07747,0.07745c0.02095,0.05063 0.05006,0.01138 0.07745,0.03876c0.02739,0.02737 0.05007,0.01135 0.07746,0.03872c0.02739,0.02738 0.01134,0.05008 0.03872,0.07746c0.02739,0.02737 0,0.03873 0.03875,0.03873c0,0 0.05006,0.01135 0.07745,0.03872c0.02739,0.02738 0.03873,0.03873 0.03873,0.07746c0,0.03872 0.02685,0.05648 0.07747,0.07745c0.03578,0.01483 0.0565,0.02685 0.07745,0.07748c0.01482,0.03577 0.01134,0.01136 0.03873,0.03873c0.02739,0.02737 0.02391,0.04169 0.03872,0.07745c0.02097,0.0506 0.03875,0.07746 0.03875,0.11618c0,0 0.03872,0.07746 0.03872,0.11618c0,0 0,0.03876 0,0.03876c0,0.03873 0,0.07746 0,0.11618c0,0 0,0.03873 0,0.07746c0,0.03872 0,0.11618 0,0.1549c0,0.03873 0,0.11621 0,0.15494c0,0.03873 0,0.07745 0,0.11618c0,0.03873 0,0.07746 0,0.07746c0,0.03872 0,0.07745 0,0.15493c0,0.03873 0,0.11618 0,0.19364c0,0 0,0.11618 0,0.1549c0,0.03876 0,0.11622 0,0.15494c0,0.03873 0,0.11618 0,0.15491c0,0 0,0.03873 0,0.11618c0,0.03876 0,0.03876 0,0.07748c0,0.03873 0,0.03873 0,0.07746c0,0.03872 0,0.03872 0,0.07745c0,0.07745 0,0.11618 0,0.11618c0,0.07749 0,0.11621 0,0.15494c0,0 0,0.07745 0,0.11618c0,0.03873 0,0.07745 0,0.11618c0,0.03873 0,0.07745 0,0.07745c0,0.03876 0,0.07749 0,0.11621c0,0.03873 0,0.03873 0,0.07746c0,0.03872 0,0.07745 0,0.11618c0,0.03873 0,0.07745 0,0.11621c0,0.03873 0,0.07745 0,0.11618c0,0.07745 0,0.11618 0,0.15491c0,0.07745 -0.01481,0.08041 0,0.11618c0.02095,0.05063 0.03873,0.03875 0.03873,0.07748c0,0.03873 0,0.07746 0,0.11618c0,0.03873 0.01776,0.06558 0.03873,0.11618c0.01481,0.03577 0,0.11618 0,0.11618c0,0.03876 0,0.07749 0,0.11621c0,0.03873 0,0.11618 0,0.15491c0,0.03873 0,0.07745 0,0.11618c0,0.03876 0,0.07749 0,0.07749c-0.03873,0 -0.03873,0 -0.03873,0.03872c0,0.03873 -0.03873,0.03873 -0.03873,0.11618c0,0 0,0.03873 0,0.07746c0,0.07745 0,0.11618 0,0.15493c0,0.03873 0,0.07746 0,0.07746c0,0.03872 0,0.07745 0,0.11618c0,0.03872 0,0.07745 0,0.07745c0,0.07746 0,0.11618 0,0.11618c0,0 0,0.03876 0,0.03876c0,0 0.02739,0.08881 0,0.11618c-0.02739,0.02737 -0.03872,0 -0.07747,0c-0.03872,0 -0.07745,0.03873 -0.07745,0.03873c-0.03873,0 -0.02686,0.01776 -0.07745,0.03872c-0.0358,0.01484 -0.07747,0.03873 -0.07747,0.03873c-0.03873,0 -0.07746,0.03873 -0.07746,0.03873c0,0 0,0 0,0.03872c0,0.03873 0.04168,0.06266 0.07746,0.07749c0.0506,0.02096 0.12753,0.05008 0.15492,0.07745c0.02739,0.02738 0,0.07746 0.03873,0.07746c0,0 0,0.03872 -0.03873,0.03872c-0.03873,0 -0.10938,0.01883 -0.19365,0.03873c-0.03769,0.00891 -0.1162,0 -0.19365,0c-0.07745,0 -0.11618,-0.03873 -0.15492,-0.03873c0,0 -0.03873,0 -0.07746,0c0,0 0.00104,-0.02981 0.03873,-0.03872c0.08429,-0.0199 0.15492,-0.03873 0.23238,-0.07746c0.07747,-0.03873 0.15492,-0.03873 0.19365,-0.03873c0,0 0,0 -0.03873,0c-0.03873,0 -0.07745,0 -0.1162,0c-0.03872,0 -0.11618,0 -0.1549,0c-0.1162,0 -0.15493,0 -0.23238,0c-0.03874,0 -0.07954,0.0178 -0.15492,0c-0.08429,-0.01989 -0.07747,-0.03872 -0.15492,-0.03872c-0.07746,0 -0.07746,0 -0.15493,0c-0.03872,0 -0.07745,0 -0.11618,0c-0.03872,0 -0.11619,0 -0.15492,0c-0.03873,0 -0.11619,0 -0.19365,0c-0.03873,0 -0.07745,0 -0.07745,0c-0.07747,0 -0.15492,0 -0.15492,0c-0.07746,0 -0.15493,0 -0.19365,0c-0.07746,0 -0.15023,0.0191 -0.27111,0.03872c-0.03824,0.0062 -0.07747,0 -0.15492,0c0,0 -0.03873,0 -0.15492,0c0,0 -0.07746,0.03873 -0.15492,0.03873c-0.03873,0 -0.11618,0 -0.15491,0c-0.03874,0 -0.15492,0.03873 -0.19365,0.03873c-0.07747,0 -0.1162,0.03873 -0.15492,0.03873c-0.07746,0 -0.1162,0 -0.15493,0c-0.03872,0 -0.07745,0 -0.11618,0c-0.03874,0 -0.07746,0 -0.11619,0c-0.03873,0 -0.07746,0 -0.15492,0c-0.03873,0 -0.15491,0 -0.19365,0c-0.07746,0 -0.15491,0 -0.19365,0c-0.07746,0 -0.15491,0 -0.23238,0c-0.03873,0 -0.11618,0 -0.19365,0c0,0 -0.11618,0 -0.15491,0c-0.03874,0 -0.11619,0 -0.15492,0c-0.03872,0 -0.15492,0 -0.23237,0c-0.03873,0 -0.10433,-0.01777 -0.15493,-0.03873c-0.07156,-0.02963 -0.11619,0 -0.19365,0c-0.03872,0 -0.07745,0 -0.15492,0c-0.03873,0 -0.07745,0 -0.07745,0c-0.03873,0 -0.07746,0 -0.1162,0c0,0 0,0 0,0c-0.07745,0 -0.1549,0.03873 -0.1549,0.03873l0,0l0,0l0,0"/>
  <path fill="none" stroke="#000" stroke-width="0.5" stroke-opacity="null" id="svg_123" d="m30.69647,118.5049c0,0 0,0.03872 0,0.11618c0,0.03872 0,0.07745 -0.03875,0.07745c0,0 -0.07745,0 -0.11618,0c0,0 0,0 0,0.03873c0,0.03872 0.08051,0.0693 0.19365,0.11618c0.08002,0.03314 0.11618,0.07748 0.15491,0.07748c0,0 0,0 -0.03873,0c-0.03872,0 -0.07745,0 -0.11618,-0.03873c-0.03874,-0.03875 -0.07747,-0.07748 -0.11619,-0.07748c0,0 0,0 -0.03873,0l0,0"/>
  <path fill="none" stroke="#000" stroke-width="0.5" stroke-opacity="null" id="svg_124" d="m42.54774,126.8705c0,0 -0.04447,0.00885 0,0.11618c0.02096,0.05059 0.11619,0.15493 0.19365,0.23239c0.07747,0.07745 0.12753,0.0888 0.15492,0.11618c0.02739,0.02737 0,0.03872 0.03873,0.03872c0.03872,0 0.03872,0 0.07745,0c0,0 0,-0.03872 0,-0.03872c0,-0.11618 0,-0.15491 0,-0.19364c0,-0.03875 0,-0.07748 0,-0.07748c0,0 -0.03873,0 -0.07745,0l0,0l0,0.03873l-0.03873,0"/>
  <path fill="none" stroke="#000" stroke-width="0.5" stroke-opacity="null" id="svg_125" d="m37.74526,127.76127c0,0 0,0 0,0c0.03873,0.03873 0.0949,0.09491 0.19365,0.19367c0.09874,0.09872 0.19676,0.21249 0.2711,0.30981c0.08477,0.11096 0.17502,0.17658 0.27111,0.30985c0.05064,0.07025 0.11929,0.17376 0.19365,0.27112c0.08476,0.11096 0.15495,0.1936 0.27112,0.30981c0.03874,0.03876 0.15226,0.15778 0.19364,0.19366c0.14631,0.12687 0.20514,0.21741 0.30983,0.30985c0.06493,0.05731 0.16213,0.14301 0.23238,0.19363c0.08887,0.06406 0.14384,0.16315 0.23238,0.27112c0.06945,0.08472 0.14302,0.16211 0.19365,0.23236c0.06405,0.0889 0.10429,0.12342 0.15492,0.19367c0.03203,0.04443 0.04542,0.03302 0.07745,0.07745c0.05065,0.07025 0.03874,0.11618 0.03874,0.11618c0.07746,0.03873 0.11618,0.07749 0.15491,0.11621l0,0.03873l0,0"/>
  <path fill="none" stroke="#000" stroke-width="0.5" stroke-opacity="null" id="svg_126" d="m37.82272,133.84184c0,0 0,0.03873 0,0.03873c-0.03873,0.03872 -0.03873,0.07745 -0.07746,0.11618c0,0 0.02739,0.01135 0,0.03872c-0.02739,0.02738 -0.06559,0.09525 -0.11619,0.11621c-0.03578,0.01484 -0.03873,0.03873 -0.03873,0.03873l0,0"/>
  <path fill="none" stroke="#000" stroke-width="0.5" stroke-opacity="null" id="svg_127" d="m37.66779,121.1385c0,0 0,0 0.03875,0c0.03872,0 0.08465,0.06555 0.1549,0.11618c0.04445,0.03201 0.08417,0.07175 0.1162,0.11621c0.05061,0.07025 0.07745,0.07746 0.07745,0.07746l0,0.03872l0,0.03873"/>
  <path fill="none" stroke="#000" stroke-width="0.5" stroke-opacity="null" id="svg_128" d="m40.06904,123.77211c0,0 -0.01192,0.08468 0.03873,0.15494c0.06405,0.08886 0.11621,0.19363 0.19365,0.27108c0.03874,0.03876 0.03872,0.03876 0.07746,0.03876l0,0"/>
  <path fill="#ffffff" stroke-width="0" stroke-opacity="null" d="m78.67963,97.26391c0,0 -22.3574,-0.27817 -22.3574,-0.27817c0,0 -0.13886,41.30734 -0.13886,41.30734c0,0 22.35739,-0.27816 22.35739,-0.27816c0,0 0.13887,-40.75101 0.13887,-40.75101z" id="svg_169" stroke="#000"/>
  <path fill="#ffffff" stroke-width="0.5" stroke-opacity="null" d="m78.42063,102.04315c0,0 -18.75133,0.18315 -18.75133,0.18315c0,0 0.09147,32.32576 0.09147,32.32576c0,0 18.75133,-0.09158 18.75133,-0.09158c0,0 -0.09147,-32.41733 -0.09147,-32.41733z" id="svg_207" stroke="#000"/>
  <line fill="none" stroke-width="0.5" stroke-opacity="null" x1="59.71125" y1="110.99875" x2="68.35893" y2="102.30958" id="svg_208" stroke-linejoin="null" stroke-linecap="null" stroke="#000"/>
  <line fill="none" stroke="#000" stroke-width="0.5" stroke-opacity="null" x1="74.41132" y1="106.64806" x2="70.91758" y2="103.48392" id="svg_209" stroke-linejoin="null" stroke-linecap="null"/>
  <line fill="none" stroke-width="0.5" stroke-opacity="null" x1="78.33411" y1="106.57135" x2="76.58666" y2="103.68168" id="svg_210" stroke-linejoin="null" stroke-linecap="null" stroke="#000"/>
  <line fill="none" stroke-width="0.5" stroke-opacity="null" x1="71.01588" y1="103.54984" x2="76.80717" y2="103.79194" id="svg_211" stroke-linejoin="null" stroke-linecap="null" stroke="#000"/>
  <line fill="none" stroke-width="0.5" stroke-opacity="null" x1="76.32299" y1="105.98886" x2="75.7405" y2="108.48301" id="svg_212" stroke-linejoin="null" stroke-linecap="null" stroke="#000"/>
  <line fill="none" stroke-width="0.5" stroke-opacity="null" x1="78.38924" y1="112.58198" x2="75.72971" y2="108.32843" id="svg_213" stroke-linejoin="null" stroke-linecap="null" stroke="#000"/>
  <line fill="none" stroke="#000" stroke-width="0.5" stroke-opacity="null" x1="59.97493" y1="110.60323" x2="64.45746" y2="115.08576" id="svg_214" stroke-linejoin="null" stroke-linecap="null"/>
  <line fill="none" stroke-width="0.5" stroke-opacity="null" x1="59.7161" y1="119.96381" x2="64.29634" y2="114.85873" id="svg_215" stroke-linejoin="null" stroke-linecap="null" stroke="#000"/>
  <line fill="none" stroke-width="0.5" stroke-opacity="null" x1="59.71125" y1="125.36922" x2="62.42617" y2="121.72658" id="svg_216" stroke-linejoin="null" stroke-linecap="null" stroke="#000"/>
  <line fill="none" stroke="#000" stroke-width="0.5" stroke-opacity="null" x1="59.83088" y1="119.76605" x2="62.40174" y2="122.07324" id="svg_217" stroke-linejoin="null" stroke-linecap="null"/>
  <line fill="none" stroke-width="0.5" stroke-opacity="null" x1="59.71022" y1="129.06071" x2="67.09425" y2="120.35933" id="svg_218" stroke-linejoin="null" stroke-linecap="null" stroke="#000"/>
  <line fill="none" stroke-width="0.5" stroke-opacity="null" x1="65.18292" y1="118.64542" x2="67.09459" y2="120.75277" id="svg_219" stroke-linejoin="null" stroke-linecap="null" stroke="#000"/>
  <line fill="none" stroke="#000" stroke-width="0.5" stroke-opacity="null" x1="72.89517" y1="109.94404" x2="65.44626" y2="118.77726" id="svg_220" stroke-linejoin="null" stroke-linecap="null"/>
  <line fill="none" stroke="#000" stroke-width="0.5" stroke-opacity="null" x1="77.0481" y1="115.08576" x2="69.00591" y2="105.26375" id="svg_221" stroke-linejoin="null" stroke-linecap="null"/>
  <line fill="none" stroke="#000" stroke-width="0.5" stroke-opacity="null" x1="73.62028" y1="119.04094" x2="65.51218" y2="109.28484" id="svg_222" stroke-linejoin="null" stroke-linecap="null"/>
  <line fill="none" stroke="#000" stroke-width="0.5" stroke-opacity="null" x1="69.20367" y1="105.26375" x2="65.64401" y2="109.41668" id="svg_223" stroke-linejoin="null" stroke-linecap="null"/>
  <line fill="none" stroke="#000" stroke-width="0.5" stroke-opacity="null" x1="77.0481" y1="114.88801" x2="63.46867" y2="131.17014" id="svg_224" stroke-linejoin="null" stroke-linecap="null"/>
  <line fill="none" stroke-width="0.5" stroke-opacity="null" x1="66.83057" y1="134.4002" x2="63.50531" y2="130.96753" id="svg_225" stroke-linejoin="null" stroke-linecap="null" stroke="#000"/>
  <line fill="none" stroke-width="0.5" stroke-opacity="null" x1="72.36781" y1="129.06071" x2="73.02597" y2="127.47865" id="svg_226" stroke-linejoin="null" stroke-linecap="null" stroke="#000"/>
  <line fill="none" stroke-width="0.5" stroke-opacity="null" x1="75.74677" y1="128.43816" x2="72.78776" y2="127.49086" id="svg_227" stroke-linejoin="null" stroke-linecap="null" stroke="#000"/>
  <line fill="none" stroke-width="0.5" stroke-opacity="null" x1="78.54611" y1="121.11419" x2="74.50023" y2="126.67493" id="svg_228" stroke-linejoin="null" stroke-linecap="null" transform="rotate(-1.6134915351867676 76.52317047119014,123.89456939697286) " stroke="#000"/>
  <line fill="none" stroke="#000" stroke-width="0.5" stroke-opacity="null" x1="75.53195" y1="128.26968" x2="74.54316" y2="126.55577" id="svg_229" stroke-linejoin="null" stroke-linecap="null"/>
  <path fill="#000000" stroke="#000" stroke-width="0.5" stroke-opacity="null" id="svg_230" d="m66.8686,130.86892c0,0 0.05527,0 0.05527,0c0.05528,0.05527 0.16585,0.11054 0.22111,0.11054c0,0 0.11059,0.0553 0.16585,0.11056c0.05529,0.0553 0.05527,0.0553 0.05527,0.0553c0.05528,0.05527 0.07147,0.01618 0.11057,0.05527c0.03907,0.03909 0.06825,0.17425 0.11056,0.2764c0.02991,0.0722 0.07146,0.07147 0.11055,0.11056c0.03908,0.03909 0.03413,0.05948 0.05528,0.11054c0.02993,0.07223 0.05529,0.05529 0.05529,0.11056c0,0.0553 0,0.0553 0,0.11057c0,0.05526 0.05526,0.11056 0.11055,0.16583c0,0 -0.01696,0.08063 0.05528,0.11056c0.05107,0.02115 0.0162,0.01618 0.05528,0.05527c0.03909,0.03909 0.05528,0.0553 0.05528,0.11057c0,0.05526 0,0.16583 0,0.22113c0,0.11053 0,0.16583 0,0.27639c0,0.05527 -0.01619,0.07145 -0.05528,0.11054c-0.07819,0.07819 0,0.22113 0,0.2764c0,0.11056 0,0.16583 0,0.16583c-0.05528,0 -0.05528,0.0553 -0.05528,0.11056c0,0 0,0.0553 0.05528,0.0553c0,0 0,0 0,0c0,0 0.08215,0.00974 0.11055,-0.11056c0.03809,-0.16141 0.04712,-0.289 0.11057,-0.44223c0.02992,-0.07224 0.11055,-0.22113 0.16583,-0.2764c0.0553,-0.0553 0.01617,-0.18204 0.05528,-0.22113c0.03909,-0.03909 0.13591,-0.09363 0.16583,-0.16583c0.02115,-0.05106 0.05529,-0.05527 0.05529,-0.05527c0,0 0.00421,0.02115 0.05528,0c0.07223,-0.02994 0.07147,-0.07147 0.11055,-0.11057c0.03909,-0.03909 0.05528,0 0.11056,0c0.05529,0 0.11055,0 0.16584,0c0,0 0.11056,0 0.11056,0c0.05528,0 0.11055,0 0.11055,0c0.11057,0 0.1489,-0.02536 0.22112,-0.05529c0.10214,-0.04233 0.22111,-0.05527 0.22111,-0.05527c0.11057,0 0.11057,0 0.16585,0c0.05528,0 0.16583,0 0.2764,0c0.11055,0 0.22111,0 0.27638,0c0.05528,0 0.16585,0 0.16585,0c0.05528,0 0.16583,0.05527 0.22111,0.05527c0,0 0.05528,0 0.11055,0c0.05528,0 0.11057,0.05529 0.11057,0.05529c0,0 0.0162,0.01618 0.05528,0.05527c0.03909,0.03909 0.16583,0 0.16583,0c0.05528,0 0.05528,0.0553 0.05528,0.0553c0,0 0.11055,0 0.16584,0c0,0 0.03834,0.02536 0.11056,0.05527c0.05106,0.02115 0.05527,0.05526 0.11055,0.05526c0,0 0.05529,0.0553 0.11057,0.0553c0.05528,0 0.05528,0.05527 0.11055,0.05527c0,0 0.01619,-0.03909 0.05528,0c0.03911,0.03909 0.08064,0.09363 0.11057,0.16583c0.02116,0.05109 0.05526,0.0553 0.05526,0.0553c0,0 0.05529,0 0.05529,0.05527c0,0.05529 0.00421,0.08941 0.05528,0.11056c0.07222,0.02991 0.05528,0.11057 0.11056,0.16583c0.05527,0.05527 0.11476,0.03412 0.16584,0.05527c0.07223,0.02994 0.05528,0.0553 0.11055,0.0553c0.05528,0 0.11056,0 0.11056,0c0.05528,0 0.11055,0 0.16583,0c0.05529,0 0.12084,0.01697 0.22112,-0.0553c0.06341,-0.04571 0.11056,-0.11053 0.11056,-0.11053c0.05529,0 0.16584,-0.0553 0.22112,-0.0553c0,0 0.03834,-0.02536 0.11056,-0.05527c0.05106,-0.02115 0.11055,0 0.11055,0c0.05529,0 0.11057,0 0.11057,0c0.05527,0 0.11055,0 0.11055,0c0.05528,0 0.11478,-0.02115 0.16583,0c0.07222,0.02991 0.05528,0.05527 0.11057,0.05527c0.11056,0 0.11056,0 0.16583,0c0,0 0,0 0.11056,0c0.05529,0 0.11055,0 0.16584,0c0.05528,0 0.16583,0 0.16583,0c0.05528,0 0.11056,0 0.22113,0c0,0 0.11055,0 0.16583,0c0.05528,0 0.05528,0 0.11055,0c0.05528,0 0.16585,0 0.16585,0c0.05528,0 0.11055,0 0.16583,0c0.05529,0 0.05529,0 0.16584,0c0.05528,0 0.11056,0 0.11056,0c0,0 0.11476,0.02115 0.16583,0c0.07222,-0.02991 0.10244,-0.06482 0.16585,-0.11054c0.10028,-0.07226 0.11203,-0.0426 0.16583,-0.05529c0.12029,-0.02838 0.16584,-0.05527 0.16584,-0.05527c0.11056,0 0.09362,-0.08066 0.16584,-0.11057c0.05106,-0.02114 0.05948,-0.03411 0.11055,-0.05526c0.07224,-0.02994 0.08942,-0.05951 0.11057,-0.11057c0.02991,-0.07223 0.05527,-0.0553 0.05527,-0.11056c0,-0.05527 0,-0.05527 0,-0.11057c0,-0.05527 0,-0.05527 0,-0.16583c0,0 0,0 0,-0.05527c0,-0.0553 -0.05527,-0.0553 -0.05527,-0.11056c0,-0.05527 0,-0.05527 -0.05528,-0.05527c-0.11057,0 -0.11882,-0.08151 -0.16584,-0.11057c-0.10514,-0.065 -0.11056,-0.11056 -0.16584,-0.11056c0,0 -0.03833,-0.08063 -0.11055,-0.11057c-0.05108,-0.02115 -0.11057,0 -0.11057,-0.05526c0,-0.0553 0,-0.0553 -0.05528,-0.0553c-0.05527,0 -0.11055,0 -0.16583,-0.05527c0,0 -0.01619,-0.01617 -0.05529,-0.05527c-0.07818,-0.07818 -0.05528,-0.11056 -0.11055,-0.11056c-0.05528,0 -0.05528,-0.05527 -0.05528,-0.05527c-0.05528,-0.0553 -0.12675,-0.0162 -0.16583,-0.0553c-0.03908,-0.03909 -0.05528,-0.11056 -0.11057,-0.11056c-0.05528,0 -0.11055,-0.05527 -0.11055,-0.05527c-0.05528,-0.05527 -0.11477,-0.03412 -0.16585,-0.05527c-0.07223,-0.02993 -0.11055,-0.11056 -0.16583,-0.11056c0,0 -0.11056,-0.0553 -0.16583,-0.11057c-0.05528,-0.05526 -0.12674,-0.07147 -0.16585,-0.11056c-0.03909,-0.0391 -0.05528,0 -0.11055,0c0,0 -0.03238,0.07818 -0.11056,0c-0.03908,-0.0391 -0.0595,-0.08939 -0.11055,-0.11054c-0.07224,-0.02993 -0.11057,-0.11056 -0.16585,-0.11056c0,0 -0.05948,0.02115 -0.11055,0c-0.07224,-0.02994 -0.11057,-0.11057 -0.16585,-0.11057c-0.11055,0 -0.0936,-0.08062 -0.16583,-0.11056c-0.05107,-0.02115 -0.1577,-0.00955 -0.22112,-0.05527c-0.10028,-0.07227 -0.15461,-0.06949 -0.22111,-0.11057c-0.1487,-0.09188 -0.23825,-0.01867 -0.38695,-0.11056c-0.0665,-0.04111 -0.05528,-0.05527 -0.11056,-0.05527c-0.05529,0 -0.11057,0 -0.16584,0c0,0 -0.11056,0 -0.22111,0c-0.05528,0 -0.2226,-0.01269 -0.2764,0c-0.1203,0.02838 -0.16585,0.11057 -0.2764,0.11057c-0.11056,0 -0.10083,0.02688 -0.22111,0.05526c-0.0538,0.0127 -0.08151,0.00824 -0.11057,0.05527c-0.06497,0.10517 -0.14293,0.03238 -0.22111,0.11057c-0.03911,0.03909 -0.11057,0.0553 -0.22112,0.16583c-0.0553,0.0553 -0.16581,0.11057 -0.22111,0.16586c-0.05529,0.05527 -0.16732,0.09784 -0.22112,0.11054c-0.12031,0.02841 -0.19119,0.03836 -0.22111,0.11056c-0.02115,0.05106 0.01695,0.08063 -0.05529,0.11057c-0.05107,0.02115 -0.12675,-0.03909 -0.16583,0c-0.03908,0.03909 -0.05676,0.04257 -0.11056,0.05527c-0.1203,0.02841 -0.10082,0.13745 -0.22112,0.16583c-0.0538,0.01269 -0.11203,-0.0127 -0.16583,0c-0.12032,0.02841 -0.16585,0.0553 -0.2764,0.11056c-0.11056,0.0553 -0.11056,0.0553 -0.22111,0.0553c-0.11057,0 -0.11057,0.05527 -0.16584,0.05527c-0.05528,0 -0.16584,0 -0.16584,0c-0.05529,0 -0.16584,0.05527 -0.22112,0.05527c0,0 -0.05528,0 -0.11055,0c-0.11056,0 -0.16585,0 -0.2764,0c-0.05528,0 -0.16584,0 -0.27639,0c0,0 -0.01621,-0.01618 -0.05529,-0.05527c-0.03909,-0.03909 -0.11055,0 -0.16583,0c0,0 -0.06557,-0.03827 -0.16585,-0.11057c-0.0634,-0.04571 -0.14448,-0.07168 -0.27638,-0.2211c-0.08182,-0.09268 -0.11056,-0.11056 -0.16585,-0.11056c-0.05528,0 -0.05528,0 -0.11055,0c-0.05528,0 -0.11056,-0.0553 -0.16585,-0.0553c0,0 -0.05526,0 -0.11055,0c-0.05528,0 -0.05528,0 -0.05528,0c0,0 0,0 0,0c0,0.0553 0,0.0553 0,0.0553c0,0 0,0 0.05528,0.05527c0.0553,0.05529 0.05529,0.11056 0.11055,0.16583l0,0"/>
  <ellipse fill="#ffffff" stroke="#ffffff" stroke-width="0" cx="75.21574" cy="131.83629" id="svg_231" rx="0.22112" ry="0.19348"/>
  <path fill="#000000" stroke="#000" stroke-width="0.5" stroke-opacity="null" id="svg_232" d="m65.99332,109.3143c0.05276,0 0.05276,0 0.10554,0c0.05277,0 0.05277,0 0.15831,0.10556c0.05277,0.05276 0.05277,0.10553 0.15831,0.10553c0.05277,0 0.05277,0.10553 0.10555,0.15832c0.05276,0.05277 0.13119,0.04346 0.15831,0.1583c0.01213,0.05136 -0.03731,0.06821 0,0.10553c0.03731,0.03732 0.12974,0.03662 0.15831,0.10556c0.0202,0.04874 0.05276,0.05276 0.05276,0.10553c0,0 0.02422,0.08938 0.05278,0.15832c0.02021,0.04874 0.07698,0.03659 0.10553,0.10553c0.02019,0.04874 0.05278,0.10553 0.05278,0.15833c0,0 0.01546,0.06821 0.05277,0.10553c0.07461,0.07461 0.05276,0.10553 0.10554,0.15832c0.05277,0.05277 0.03258,0.10956 0.05277,0.1583c0.02855,0.06894 0.06065,0.07779 0.10554,0.10553c0.10039,0.06204 0.10555,0.10556 0.10555,0.15832c0,0.05277 0.06822,0.12101 0.10553,0.15833c0.03731,0.03732 0.07699,0.08935 0.10554,0.15829c0.02019,0.04874 0.03257,0.10956 0.05277,0.15833c0.02856,0.06894 0.10554,0.10553 0.10554,0.10553c0.05277,0.10553 0.08937,0.18252 0.15831,0.21109c0.04877,0.0202 0.05278,0.05276 0.10555,0.10553c0,0 0.01546,0.06821 0.05276,0.10553c0.03733,0.03732 0.08535,0.00403 0.10555,0.05279c0.02855,0.06894 0.11343,0.13056 0.15831,0.1583c0.10039,0.06204 0.08536,0.10959 0.10554,0.15832c0.02855,0.06894 0.10555,0.05277 0.15831,0.10553c0.05277,0.05277 0.05277,0.10553 0.10555,0.15833c0,0 0.06822,0.01544 0.10553,0.05276c0.03731,0.03733 0.05278,0.10553 0.05278,0.1583c0,0 0.08368,-0.02185 0.15831,0.05279c0.03731,0.03733 0.05276,0.05277 0.05276,0.05277c0,0.05276 0,0.10553 0.05278,0.10553c0.05277,0 0.10553,0 0.10553,0c0.05278,0 0.05278,0.05276 0.05278,0.05276c0,0 0,-0.05276 0.05277,-0.05276c0.05276,0 0.08934,-0.06256 0.15831,-0.1583c0.04364,-0.06054 0.15831,-0.15832 0.21109,-0.26385c0,0 0,0 0,0c0.05276,-0.0528 0.06822,-0.06824 0.10553,-0.10556c0.03731,-0.03733 0.05278,-0.10553 0.05278,-0.10553c0.05276,-0.05277 0.05276,-0.05277 0.05276,-0.10553c0,-0.0528 0.08937,-0.12976 0.15831,-0.15833c0.04875,-0.0202 0.02503,-0.06064 0.05277,-0.10553c0.06202,-0.1004 0.17378,-0.06823 0.21109,-0.10556c0.03731,-0.03732 0.03659,-0.12973 0.10554,-0.15829c0.04875,-0.0202 0.12099,-0.01544 0.15831,-0.05277c0.03734,-0.03732 0.05277,-0.05279 0.15831,-0.15832c0,0 0.00402,-0.03256 0.05277,-0.05277c0.06895,-0.02856 0.10554,-0.10556 0.15831,-0.15832c0,0 0.06065,-0.02503 0.10554,-0.05277c0.10038,-0.06204 0.10555,-0.15829 0.10555,-0.15829c0.05276,-0.0528 0.03659,-0.12976 0.10553,-0.15833c0.04876,-0.0202 0.05278,-0.05276 0.10554,-0.10553c0,0 0,-0.05279 0.05278,-0.10556c0.05277,-0.05276 0.03659,-0.07696 0.10553,-0.10553c0.04877,-0.0202 0.03659,-0.12976 0.10555,-0.15832c0.04875,-0.0202 0.05276,-0.05277 0.10554,-0.05277c0.05277,0 0.03258,-0.05679 0.05277,-0.10553c0.02855,-0.06894 0.08534,-0.05679 0.10554,-0.10556c0.02855,-0.06894 0.10555,-0.10553 0.10555,-0.15829c0,0 0.05276,-0.05277 0.10553,-0.10553c0.05278,-0.0528 0.10554,-0.10556 0.10554,-0.10556c0,-0.05277 0,-0.05277 0,-0.05277c0.05277,-0.05276 0.05277,-0.10553 0.05277,-0.15832c0,0 -0.01546,-0.01544 -0.05277,-0.05277c-0.07461,-0.07461 0,-0.10553 0,-0.10553c-0.05276,-0.05276 -0.0204,-0.15396 -0.15831,-0.21109c-0.04875,-0.0202 -0.08536,-0.05679 -0.10554,-0.10553c-0.02855,-0.06894 -0.121,-0.06823 -0.15831,-0.10556c-0.03731,-0.03732 -0.02422,-0.03659 -0.05277,-0.10553c-0.04039,-0.0975 -0.05278,-0.15829 -0.05278,-0.15829c-0.05276,0 -0.07698,-0.08939 -0.10553,-0.15833c-0.02018,-0.04873 -0.04066,-0.05416 -0.05278,-0.10553c-0.0271,-0.11486 -0.11342,-0.13058 -0.15831,-0.15832c-0.10037,-0.06204 -0.10554,-0.1583 -0.15831,-0.21109c0,0 -0.05276,0 -0.05276,-0.05277c0,0 -0.0326,-0.05679 -0.05278,-0.10553c-0.02855,-0.06893 -0.12099,-0.01544 -0.15831,-0.05276c-0.03734,-0.03732 -0.02422,-0.03662 -0.05277,-0.10556c-0.02018,-0.04874 -0.01545,-0.06821 -0.05276,-0.10553c-0.03733,-0.03732 -0.06824,0.03732 -0.10555,0c-0.0373,-0.03732 -0.02421,-0.08936 -0.05278,-0.15833c-0.02018,-0.04873 -0.01545,-0.01544 -0.05276,-0.05276c-0.07462,-0.07462 -0.05277,-0.10553 -0.05277,-0.21109c0,0 -0.05278,0 -0.05278,-0.05277c0,-0.05276 -0.03257,-0.05679 -0.05276,-0.10553c-0.02855,-0.06893 -0.08536,-0.05679 -0.10555,-0.10553c-0.02855,-0.06897 -0.01545,-0.121 -0.05276,-0.15832c-0.03731,-0.03732 -0.10555,0 -0.15831,-0.05277c-0.05278,-0.05276 -0.01547,-0.121 -0.05278,-0.15832c-0.07462,-0.07462 -0.121,-0.01544 -0.15831,-0.05277c-0.03731,-0.03732 -0.05277,-0.05276 -0.05277,-0.05276c-0.05276,-0.05277 -0.05276,-0.10556 -0.10554,-0.10556c-0.05277,0 -0.01546,-0.01544 -0.05277,-0.05277c-0.0373,-0.03732 -0.03256,-0.05679 -0.05276,-0.10553c-0.02857,-0.06893 -0.12976,-0.03659 -0.15833,-0.10553c-0.0202,-0.04876 -0.05276,-0.05279 -0.05276,-0.15832c0,0 0.03731,-0.01544 0,-0.05277c-0.03731,-0.03732 -0.08534,-0.05679 -0.10555,-0.10556c-0.02855,-0.06893 -0.06822,-0.01544 -0.10553,-0.05276c-0.0373,-0.03732 0.03731,-0.06821 0,-0.10553c-0.03732,-0.03732 -0.121,-0.01544 -0.15831,-0.05277c-0.0373,-0.03732 -0.05278,-0.05276 -0.05278,-0.05276c0,0 -0.05276,-0.0528 -0.10554,-0.0528c-0.05277,0 -0.10553,0 -0.10553,0.0528c0,0 0,0 0,0c0,0.05276 -0.077,0.08936 -0.10555,0.15829c-0.02018,0.04874 0,0.05277 -0.05276,0.10553c-0.05278,0.0528 -0.05278,0.15833 -0.05278,0.15833c-0.05277,0.10553 -0.10553,0.21109 -0.15831,0.21109c0,0 -0.05277,0.05276 -0.05277,0.10553c0,0.05276 -0.06823,0.06821 -0.10554,0.10553c-0.03734,0.03732 -0.01546,0.06824 -0.05277,0.10556c-0.03732,0.03732 -0.05278,0.05276 -0.05278,0.10553c0,0 -0.06822,0.01544 -0.10553,0.05276c-0.03733,0.03733 -0.00401,0.08536 -0.05278,0.10556c-0.06894,0.02857 -0.01545,0.06821 -0.05276,0.10553c-0.03731,0.03733 -0.06822,0.01545 -0.10555,0.05277c-0.03733,0.03732 -0.01545,0.06824 -0.05276,0.10556c-0.03732,0.03732 -0.05278,0.05276 -0.05278,0.05276c0,0.05277 -0.06822,0.06821 -0.10553,0.10553c-0.03731,0.03733 -0.01546,0.01545 -0.05278,0.05277c-0.03734,0.03732 -0.05277,0.05279 -0.05277,0.10556c0,0 0.03731,0.06821 0,0.10553c-0.0373,0.03732 -0.08535,0.00403 -0.10554,0.05276c-0.02855,0.06897 -0.06822,0.12101 -0.10553,0.15833c-0.03732,0.03732 -0.10555,0.05276 -0.21109,0.15829c0,0 -0.06822,0.01548 -0.10555,0.0528c-0.0373,0.03732 -0.06822,0.01544 -0.10553,0.05276c-0.0373,0.03733 0,0.10553 0,0.10553c-0.05278,0.05277 -0.0682,0.06824 -0.10554,0.10556c-0.03731,0.03733 -0.10555,0.10553 -0.10555,0.10553c-0.05276,0.05277 -0.06823,0.06821 -0.10554,0.10553c-0.03731,0.03733 -0.08533,0.0568 -0.10553,0.10556c-0.02857,0.06894 -0.10555,0.05277 -0.10555,0.05277c-0.05276,0 -0.06822,0.01544 -0.10554,0.05276c-0.03731,0.03733 -0.01546,0.06821 -0.05277,0.10553c-0.03733,0.03733 -0.05276,0.0528 -0.05276,0.0528c0,0 -0.01547,0.01544 -0.05278,0.05276c-0.03731,0.03733 -0.05277,0.05277 -0.05277,0.05277c0,0.05276 -0.05278,0.05276 -0.05278,0.10553c0,0 -0.06822,-0.03732 -0.10553,0c-0.0373,0.03732 0,0.10556 0,0.15832c0,0.05277 0,0.05277 0,0.10553c0,0.05277 0,0.10556 0,0.10556c0,0.05277 0,0.05277 0,0.10553c0,0.05277 0.01546,0.06821 0.05277,0.10553c0.03731,0.03733 0.10554,0 0.10554,0c0,0.05277 0.05277,0.05277 0.10555,0.05277l0.05276,0"/>
  <path fill="none" stroke="#000" stroke-width="0.5" stroke-opacity="null" id="svg_233" d="m69.47617,113.16656c0,0 -0.05277,0 -0.05277,0.05277c0,0 0,0.05276 0,0.10553c0,0.05276 0,0.10553 0,0.15832c0,0.05277 0,0.05277 0,0.10553c0,0.05277 0,0.10553 0,0.10553c0,0.0528 0.05277,0.0528 0,0.0528c0,0 0.0476,-0.14908 -0.05278,-0.21109c-0.04489,-0.02774 -0.10553,-0.05277 -0.15831,-0.10556l0,0l0,-0.05277"/>
  <path fill="none" stroke="#000" stroke-width="0.5" stroke-opacity="null" id="svg_234" d="m66.89041,110.36972c0,0 -0.05276,0 -0.10554,0c-0.05277,0 -0.10553,-0.05277 -0.10553,-0.10553c0,0 0,-0.0528 -0.05278,-0.0528l0,-0.05276l-0.10553,0l-0.05278,0"/>
  <path fill="none" stroke="#000" stroke-width="0.5" stroke-opacity="null" id="svg_235" d="m67.6292,107.7312c-0.05277,0 -0.10553,0 -0.10553,0c-0.05278,0 -0.10555,0 -0.15833,0.05276c-0.05276,0.05277 -0.05276,0.05277 -0.05276,0.05277l0,0l0,0.05276"/>
  <path fill="#000000" stroke="#000" stroke-width="0.5" stroke-opacity="null" id="svg_236" d="m66.36272,134.22195c-0.05278,0 -0.10555,0 -0.10555,0c-0.05278,0 -0.16232,-0.03256 -0.21109,-0.05276c-0.13787,-0.0571 -0.16232,-0.13812 -0.21107,-0.15833c-0.06894,-0.02856 -0.03093,-0.08368 -0.10555,-0.15829c-0.0373,-0.03733 -0.05276,-0.05277 -0.05276,-0.05277c0,-0.05276 -0.05278,-0.05276 -0.05278,-0.10556c0,0 -0.00069,-0.04431 -0.05277,-0.05276c-0.16471,-0.02674 -0.14276,-0.12381 -0.26385,-0.21109c-0.09572,-0.069 -0.10553,-0.10553 -0.10553,-0.10553c-0.05278,0 -0.01547,-0.01544 -0.05278,-0.05277c-0.03731,-0.03732 -0.05277,-0.05276 -0.10555,-0.05276c-0.05276,0 -0.08368,0.02188 -0.15831,-0.05277c-0.03733,-0.03732 -0.06822,-0.121 -0.10553,-0.15832c-0.03732,-0.03732 -0.10955,-0.03256 -0.15831,-0.05277c-0.06895,-0.02856 -0.14215,-0.18252 -0.21109,-0.21109c-0.04875,-0.0202 -0.01545,-0.0682 -0.05276,-0.10553c-0.03732,-0.03732 -0.01544,-0.06823 -0.05278,-0.10556c-0.03731,-0.03732 -0.1312,-0.04345 -0.15831,-0.15829c-0.01213,-0.05136 0,-0.05277 -0.05277,-0.05277c0,0 -0.01545,-0.01547 -0.05278,-0.05279c-0.0373,-0.03732 -0.05276,-0.10553 0,-0.10553c0.05278,0 0.10555,0 0.21109,0.05276c0.10555,0.05277 0.12101,0.06824 0.15831,0.10556c0.03731,0.03733 0.03655,0.06259 0.10555,0.1583c0.04364,0.06054 0.07698,0.03659 0.10554,0.10556c0.02019,0.04873 0.03731,0.06821 0,0.10553c-0.03732,0.03732 -0.10955,0.0202 -0.15832,0c-0.06894,-0.02857 -0.10553,-0.05277 -0.10553,-0.10553c0,0 0,-0.0528 0.05276,-0.0528c0,0 0.01246,-0.04031 -0.10554,-0.15829c-0.118,-0.11798 -0.25389,-0.16544 -0.36939,-0.31662c-0.1013,-0.13263 -0.21109,-0.26386 -0.21109,-0.26386c-0.05276,0 -0.04345,-0.07843 -0.15831,-0.10556c-0.05134,-0.01211 -0.03256,-0.05679 -0.05276,-0.10553c-0.02856,-0.06894 -0.121,-0.12097 -0.15831,-0.15829c-0.03732,-0.03732 -0.05278,-0.0528 -0.05278,-0.10556c0,0 -0.01546,-0.01544 -0.05277,-0.05277c-0.0373,-0.03732 -0.05677,-0.08532 -0.10554,-0.10553c-0.06895,-0.02856 -0.05277,-0.10556 -0.05277,-0.10556c0,-0.05276 0.06823,-0.0682 0.10555,-0.10553c0.03731,-0.03732 0,-0.10553 0,-0.10553c0.05276,0 0.10553,0 0.10553,-0.05279c0,-0.05277 0.03259,-0.05679 0.05278,-0.10553c0.02855,-0.06894 0.03258,-0.05679 0.05276,-0.10553c0.02855,-0.06897 0.10555,-0.0528 0.10555,-0.15833c0,0 0,-0.05276 0.05276,-0.10553c0.05278,-0.05276 0.09629,-0.05795 0.15831,-0.15832c0.02774,-0.04489 -0.01617,-0.12973 0.05278,-0.1583c0.04876,-0.0202 0.12099,-0.06823 0.15831,-0.10556c0.03731,-0.03732 0,-0.10553 0,-0.10553c0.05277,0 0.07699,0.01618 0.10553,-0.05276c0.02019,-0.04874 0.01545,-0.06824 0.05278,-0.10556c0.03731,-0.03732 0.05277,-0.05277 0.05277,-0.05277c0,0 0.03259,-0.00402 0.05278,-0.05276c0.02855,-0.06894 0.06822,-0.06821 0.10553,-0.10553c0.03732,-0.03732 0.05278,-0.0528 0.05278,-0.0528c0,0 0.00516,-0.04348 0.10553,-0.10553c0.04489,-0.02774 0.10554,-0.05276 0.10554,-0.10553c0,0 0.0568,-0.03256 0.10555,-0.05276c0.06895,-0.02857 0.10554,-0.10556 0.10554,-0.15833c0,0 0,0 0.05277,-0.05276c0.05276,-0.05277 0.10554,-0.10556 0.15831,-0.15833c0,0 0.03256,-0.05679 0.05276,-0.10553c0.02857,-0.06894 0.12101,-0.0682 0.15833,-0.10553c0.03734,-0.03732 0.05276,-0.05279 0.10553,-0.10556c0.05278,-0.05276 0.121,-0.0682 0.15831,-0.10553c0.03731,-0.03732 0.0366,-0.18252 0.10554,-0.21109c0.04876,-0.0202 0.06823,-0.01544 0.10555,-0.05276c0.03731,-0.03732 -0.01619,-0.12976 0.05276,-0.15833c0.04877,-0.0202 0.06824,-0.01544 0.10555,-0.05276c0.07461,-0.07462 0.03256,-0.16232 0.05276,-0.21109c0.02857,-0.06894 0.06824,-0.12097 0.10555,-0.1583c0.03731,-0.03732 0.07698,-0.03659 0.10554,-0.10553c0.02021,-0.04876 0.06823,-0.06823 0.10553,-0.10556c0.03731,-0.03732 0.05278,-0.05276 0.05278,-0.10553c0,-0.05276 0.05678,-0.08535 0.10555,-0.10556c0.06894,-0.02856 0.05276,-0.10553 0.10553,-0.15829c0.05278,-0.05277 0.05679,-0.08536 0.10554,-0.10556c0.06894,-0.02857 0.03659,-0.12973 0.10555,-0.1583c0.04875,-0.0202 0.05276,-0.05276 0.10553,-0.10553c0.05278,-0.05279 0.05278,-0.10556 0.10554,-0.10556c0,0 0.0326,-0.00402 0.05278,-0.05276c0.02855,-0.06894 0.10553,-0.10553 0.15831,-0.15833c0,0 0.08931,-0.06259 0.15831,-0.15829c0.04364,-0.06055 0.07103,-0.03723 0.15831,-0.15833c0.06899,-0.0957 0.10555,-0.10553 0.10555,-0.10553c0.05276,-0.10552 0.08935,-0.18252 0.15831,-0.21109c0.04875,-0.0202 0.01237,-0.06079 0.05276,-0.15829c0.02855,-0.06894 0.11792,-0.06079 0.15831,-0.15833c0.02855,-0.06893 0.05278,-0.10552 0.10555,-0.15829c0.05278,-0.0528 0.12976,-0.08939 0.15831,-0.15833c0.04039,-0.0975 0.06821,-0.17376 0.10554,-0.21109c0.03731,-0.03732 0.05277,-0.05276 0.10553,-0.10552c0,0 0.01546,-0.01545 0.05278,-0.05277c0.03731,-0.03732 0.03257,-0.05679 0.05277,-0.10556c0.02855,-0.06894 0.08536,-0.05679 0.10554,-0.10553c0.02855,-0.06894 0.05794,-0.09625 0.15831,-0.15829c0.04489,-0.02775 0.01546,-0.06824 0.05277,-0.10556c0.03732,-0.03733 0.08536,-0.00403 0.10554,-0.05277c0.02855,-0.06894 0.06821,-0.121 0.10555,-0.15832c0.03731,-0.03733 0.07779,-0.11341 0.10553,-0.1583c0.06204,-0.10037 0.0309,-0.08368 0.10554,-0.15832c0.03733,-0.03733 0.10555,-0.10553 0.15831,-0.10553c0.05278,0 0.01544,-0.12101 0.05278,-0.15833c0.03731,-0.03732 0.10553,-0.05276 0.10553,-0.05276c0.05278,0 0.10555,-0.10553 0.10555,-0.10553c0,-0.10553 0.06822,-0.06821 0.10554,-0.10553c0.03734,-0.03733 0.07698,-0.08939 0.10555,-0.15833c0.0202,-0.04874 0.07843,-0.04346 0.10553,-0.15832c0.01211,-0.05137 0.10554,-0.10553 0.10554,-0.10553c0,-0.05277 0.06823,-0.06821 0.10555,-0.10553c0.03731,-0.03733 0.06822,-0.06824 0.10553,-0.10556c0.03731,-0.03733 0.07843,-0.04346 0.10554,-0.1583c0.01212,-0.05136 0.06824,-0.01544 0.10555,-0.05276c0.03734,-0.03733 0,-0.0528 0,-0.10556c0,-0.05277 0.05276,-0.05277 0.10554,-0.10553c0,0 0.10553,-0.05277 0.10553,-0.10553c0,0 0.01546,-0.01548 0.05278,-0.0528c0.03731,-0.03732 0.03659,-0.07696 0.10553,-0.10553c0.04877,-0.0202 0.0326,-0.05679 0.05278,-0.10553c0.02855,-0.06897 0.06824,-0.06824 0.10555,-0.10556c0.03731,-0.03732 0.07698,-0.03659 0.10553,-0.10553c0.02019,-0.04874 0.01545,-0.01544 0.05278,-0.05276c0.03731,-0.03733 0.06189,-0.04502 0.10553,-0.10556c0.06898,-0.09574 0.07699,-0.08936 0.10554,-0.1583c0.02019,-0.04874 0.05277,-0.05276 0.10555,-0.10556c0.05276,-0.05276 0.06822,-0.06821 0.10554,-0.10553c0.07462,-0.07461 0.03659,-0.12973 0.10553,-0.15829c0.04877,-0.02021 0.05278,-0.0528 0.05278,-0.0528c0.05277,-0.10553 0.07779,-0.1134 0.10553,-0.15829c0.06204,-0.10038 0.12976,-0.08939 0.15831,-0.15833c0.02019,-0.04874 0.03661,-0.07696 0.10555,-0.10553c0.04876,-0.0202 0.07699,-0.03659 0.10554,-0.10553c0.02021,-0.04877 0.09627,-0.05795 0.15831,-0.15832c0.02774,-0.0449 0.01546,-0.06821 0.05277,-0.10553c0.03734,-0.03733 0.08535,-0.10959 0.10554,-0.15833c0.02855,-0.06894 0.06822,-0.01544 0.10555,-0.05276c0.07461,-0.07462 0.06822,-0.12101 0.10554,-0.15833c0.03731,-0.03732 0.02422,-0.03659 0.05277,-0.10553c0.02018,-0.04874 0.05276,-0.05276 0.05276,-0.10553c0,0 0.06824,-0.01547 0.10555,-0.05279c0.0373,-0.03733 -0.03731,-0.12098 0,-0.1583c0.0373,-0.03732 0.05276,-0.05276 0.05276,-0.05276c0,-0.05277 0,-0.10556 0,-0.15833c0,0 0.03731,-0.01544 0,-0.05276c-0.03731,-0.03733 -0.05276,0 -0.10553,-0.05277c-0.05278,-0.05276 -0.10554,-0.10556 -0.10554,-0.10556c0,-0.05276 -0.06822,-0.01544 -0.10555,-0.05276c-0.03731,-0.03733 -0.00401,-0.08533 -0.05276,-0.10553c-0.06896,-0.02857 -0.05278,-0.10553 -0.05278,-0.10553c-0.05277,0 -0.06822,-0.12101 -0.10553,-0.15833c-0.03733,-0.03732 -0.10555,-0.05276 -0.10555,-0.05276c0,-0.05277 0.03734,-0.06824 0,-0.10556c-0.03731,-0.03733 -0.06823,-0.06821 -0.10554,-0.10553c-0.03731,-0.03733 -0.10553,-0.05277 -0.10553,-0.10553c0,0 0.01619,-0.077 -0.05278,-0.10556c-0.04875,-0.02021 -0.05277,-0.05277 -0.10555,-0.10553c-0.05276,-0.05277 -0.05276,-0.10553 -0.05276,-0.10553c0,0 0.01617,-0.077 -0.05277,-0.10556c-0.04876,-0.02021 -0.05278,-0.10553 -0.05278,-0.10553c-0.05276,0 -0.10553,-0.05277 -0.10553,-0.10553c0,-0.0528 -0.08536,-0.10959 -0.10554,-0.15833c-0.02855,-0.06894 -0.10555,-0.05276 -0.10555,-0.10553c0,-0.05279 -0.00787,-0.02505 -0.05276,-0.05279c-0.10037,-0.06201 -0.10555,-0.10553 -0.15831,-0.21106c0,0 -0.00002,0 -0.05278,-0.05277c-0.05278,-0.05279 -0.03659,-0.12976 -0.10553,-0.15832c-0.04877,-0.02021 -0.03259,-0.00403 -0.05278,-0.05277c-0.02855,-0.06894 -0.07698,-0.03659 -0.10553,-0.10556c-0.02019,-0.04873 -0.06824,-0.01544 -0.10555,-0.05276c-0.0373,-0.03733 0,-0.10553 0,-0.10553c-0.05278,0 -0.01547,-0.06821 -0.05278,-0.10553c-0.03731,-0.03733 -0.15831,-0.10556 -0.15831,-0.15833c0,0 -0.05276,-0.05276 -0.05276,-0.05276c-0.05277,0 -0.121,-0.06824 -0.15831,-0.10556c-0.03731,-0.03733 0,-0.10553 0,-0.10553c-0.05277,-0.05277 -0.08933,-0.06256 -0.15831,-0.1583c-0.04364,-0.06057 -0.06824,-0.01547 -0.10555,-0.05279c-0.0373,-0.03733 0.01618,-0.07697 -0.05276,-0.10553c-0.04877,-0.02021 -0.05278,-0.05277 -0.10555,-0.10553c0,0 -0.01545,-0.01547 -0.05276,-0.0528c-0.03731,-0.03732 -0.03661,-0.12973 -0.10555,-0.15829c-0.04875,-0.02021 -0.05276,-0.05277 -0.05276,-0.05277c-0.05278,-0.05276 -0.01547,-0.121 -0.05278,-0.15832c-0.03731,-0.03733 -0.10555,0 -0.10555,0c0,-0.05277 -0.05276,-0.05277 -0.05276,-0.10553c0,-0.05277 -0.05277,-0.10556 -0.05277,-0.10556c-0.05278,-0.05277 -0.10554,-0.05277 -0.10554,-0.05277c-0.05277,0 -0.0221,0.07486 -0.10555,0.15833c-0.08343,0.08343 -0.13812,0.10956 -0.15831,0.15829c-0.02855,0.06897 -0.05276,0.10556 -0.10554,0.15833c0,0 -0.03258,0.00403 -0.05277,0.05276c-0.02855,0.06894 -0.07698,0.03659 -0.10554,0.10553c-0.0202,0.04877 -0.05277,0.0528 -0.05277,0.0528c-0.05276,0.05276 -0.06822,0.0682 -0.10554,0.10553c-0.03731,0.03732 -0.05277,0.10553 -0.05277,0.10553c-0.05276,0 -0.05276,0 -0.10554,0.05279c-0.05277,0.05277 -0.06824,0.12097 -0.10555,0.1583c-0.07461,0.07461 -0.13812,0.05679 -0.15831,0.10553c-0.02855,0.06897 -0.12098,0.06823 -0.15831,0.10556c-0.0373,0.03732 -0.03257,0.05679 -0.05276,0.10553c-0.02855,0.06894 -0.05277,0.10556 -0.10555,0.10556c-0.05276,0 -0.08535,0.05679 -0.10554,0.10553c-0.02855,0.06894 -0.12099,0.0682 -0.15831,0.10553c-0.03731,0.03732 -0.01546,0.17376 -0.05277,0.21109c-0.0373,0.03732 -0.03659,0.0242 -0.10554,0.05276c-0.04875,0.0202 -0.05277,0.05277 -0.10553,0.15833c0,0 -0.07489,0.02209 -0.15833,0.10553c-0.08343,0.08343 -0.03657,0.12976 -0.10553,0.15832c-0.04876,0.0202 -0.05278,0.05277 -0.10554,0.05277c0,0 -0.01546,0.01544 -0.05277,0.05276c-0.0373,0.03733 0.01618,0.07697 -0.05278,0.10553c-0.04875,0.0202 -0.01545,0.06824 -0.05276,0.10556c-0.03731,0.03733 -0.06824,0.06821 -0.10555,0.10553c-0.0373,0.03732 -0.05278,0.05277 -0.10554,0.10553c-0.05278,0.0528 -0.08533,0.10959 -0.10553,0.15833c-0.02857,0.06894 -0.10555,0.10553 -0.10555,0.10553c-0.05276,0.05279 -0.03093,0.08371 -0.10554,0.15832c-0.03731,0.03732 -0.10954,0.03256 -0.15831,0.05277c-0.06894,0.02856 -0.10555,0.15832 -0.15831,0.21109c-0.05277,0.05276 -0.05794,0.09625 -0.15831,0.15829c-0.04489,0.02774 -0.121,0.01547 -0.15831,0.0528c-0.03731,0.03732 -0.01546,0.0682 -0.05277,0.10553c-0.0373,0.03732 -0.05278,0.05276 -0.05278,0.10553c0,0 0.03731,0.01544 0,0.05276c-0.0373,0.03732 -0.01545,0.06824 -0.05276,0.10556c-0.03732,0.03732 -0.05278,0.05277 -0.05278,0.05277c0.05278,0 0.10554,0 0.15832,0c0,0 0.01546,0.01544 0.05277,0.05276c0.03731,0.03732 0.06822,0.01544 0.10554,0.05277c0.03734,0.03732 0.05277,0.05279 0.05277,0.10556c0,0 0.01546,0.01544 0.05276,0.05276c0.03731,0.03732 0.01548,0.12097 0.05278,0.1583c0.03731,0.03732 0.08533,0.00402 0.10553,0.05279c0.02857,0.06894 0.05278,0.10553 0.05278,0.10553c0.05277,0.05277 0.06823,0.01544 0.10555,0.05277c0.03731,0.03732 0.03256,0.05679 0.05276,0.10556c0.02855,0.06894 0.06823,0.0682 0.10555,0.10553c0.03731,0.03732 0.06822,0.0682 0.10553,0.10553c0.03731,0.03732 0.05278,0.10556 0.05278,0.10556c0,0 0.01546,0.0682 0.05276,0.10553c0.03731,0.03732 0.03659,0.07696 0.10555,0.10553c0.04875,0.0202 0.01546,0.06823 0.05276,0.10556c0.03733,0.03732 0.03661,0.07696 0.10555,0.10553c0.04875,0.0202 0.01546,0.0682 0.05276,0.10553c0.03733,0.03732 0.05278,0.05279 0.05278,0.10556c0,0 -0.01622,0.00982 0.05277,0.10553c0.04362,0.06054 0.05276,0.10556 0.05276,0.10556c0,0.05276 -0.04065,0.05417 -0.05276,0.10553c-0.02712,0.11483 -0.09627,0.05792 -0.15831,0.15829c-0.02776,0.04492 -0.07698,0.08939 -0.10555,0.15833c-0.0202,0.04873 -0.01545,0.0682 -0.05276,0.10553c-0.03734,0.03732 -0.05278,0.10556 -0.05278,0.10556c-0.05277,0.10553 -0.10553,0.10553 -0.10553,0.15829c0,0 -0.00401,0.03256 -0.05278,0.05277c-0.06896,0.02856 -0.06822,0.06823 -0.10553,0.10556c-0.03731,0.03732 -0.05278,0.10553 -0.05278,0.10553c-0.05277,0.05276 -0.08533,0.10958 -0.10553,0.15832c-0.02857,0.06894 -0.10555,0.05277 -0.10555,0.05277c0,0.05276 -0.00401,0.08532 -0.05278,0.10553c-0.06894,0.02856 -0.09626,0.05795 -0.15831,0.15832c-0.02774,0.04489 0.02019,0.05679 0,0.10553c-0.02855,0.06894 -0.10553,0.05277 -0.10553,0.05277c-0.05278,0.05279 -0.09343,0.05419 -0.10554,0.10556c-0.02712,0.11483 -0.06824,0.12097 -0.10555,0.15829c-0.07463,0.07465 -0.06823,0.121 -0.10554,0.15833c-0.07462,0.07461 -0.06822,0.01544 -0.10553,0.05276c-0.03732,0.03732 -0.10555,0.05277 -0.10555,0.10553c0,0.0528 -0.07698,0.03662 -0.10554,0.10556c-0.0202,0.04874 -0.05277,0.10553 -0.10553,0.1583c0,0 -0.06824,0.01544 -0.10555,0.05276c-0.03733,0.03732 -0.01547,0.121 -0.05278,0.15833c-0.0373,0.03732 -0.05276,0 -0.05276,0c-0.05277,0.05276 -0.08536,0.05679 -0.10555,0.10553c-0.02854,0.06896 -0.10553,0.10556 -0.10553,0.10556c0,0 -0.06823,0.01544 -0.10554,0.05276c-0.03731,0.03732 -0.05277,0.10553 -0.10555,0.1583c0,0 0.00002,0 -0.05276,0.05279c-0.05277,0.05277 -0.0837,0.03091 -0.15831,0.10553c-0.03731,0.03732 -0.05277,0.10553 -0.10555,0.15833c-0.05276,0.05276 -0.08535,0.10955 -0.10554,0.15829c-0.02855,0.06894 -0.10555,0.10553 -0.21108,0.15833c0,0 0,0.05276 -0.05278,0.10553c-0.05276,0.05276 -0.06822,0.01544 -0.10553,0.05276c-0.0373,0.03732 -0.05278,0.05276 -0.05278,0.10556c0,0 -0.04499,0.11465 -0.10553,0.15829c-0.09573,0.06901 -0.10554,0.10553 -0.15832,0.15833c-0.05277,0.05277 -0.15831,0.10553 -0.15831,0.15829c0,0.05277 -0.06258,0.08933 -0.15831,0.15833c-0.06053,0.04364 -0.05277,0.10553 -0.10553,0.15829c0,0 -0.0309,0.08368 -0.10555,0.15833c-0.03732,0.03732 -0.05278,0.05276 -0.05278,0.05276c-0.05276,0 -0.12974,0.08936 -0.15831,0.15833c-0.02018,0.04874 -0.07698,0.03659 -0.10553,0.10553c-0.02018,0.04874 -0.0366,0.12973 -0.10554,0.15829c-0.04875,0.02021 -0.05276,0.10556 -0.10555,0.15833c-0.05276,0.05276 -0.10554,0.05276 -0.15831,0.10553c-0.05278,0.05279 -0.10554,0.15832 -0.15831,0.21109c-0.05276,0.05276 -0.00515,0.09628 -0.10554,0.15832c-0.08977,0.05549 -0.12766,0.12763 -0.21107,0.21106c-0.08344,0.08347 -0.10555,0.10556 -0.15831,0.21109c0,0 -0.10555,0.10556 -0.15831,0.15833c-0.05278,0.05276 -0.01548,0.12097 -0.05278,0.15829c-0.03731,0.03733 -0.10955,0.08536 -0.15831,0.10556c-0.06894,0.02857 -0.03257,0.10956 -0.05277,0.1583c-0.02856,0.06894 -0.121,0.01544 -0.15831,0.05276c-0.03734,0.03733 -0.05278,0.10556 -0.05278,0.15833c0,0.05276 -0.05794,0.09628 -0.15831,0.15829c-0.04489,0.02774 -0.01546,0.06824 -0.05276,0.10556c-0.03731,0.03733 -0.10555,0.05277 -0.15831,0.10553c-0.05278,0.05277 -0.05278,0.10556 -0.05278,0.10556c-0.05277,0 -0.0366,0.07697 -0.10553,0.10553c-0.04877,0.02021 -0.01548,0.06821 -0.05278,0.10553c-0.03731,0.03733 -0.03257,0.0568 -0.05277,0.10556c-0.02855,0.06894 -0.10956,0.08533 -0.15831,0.10553c-0.06894,0.02857 -0.06822,0.06821 -0.10554,0.10553c-0.03734,0.03733 -0.05277,0.10556 -0.10555,0.10556c0,0 0,0.05277 0,0.05277c-0.05276,0 -0.05276,0.05276 -0.05276,0.10553c0,0.05276 0,0.05276 0,0.10556c0,0.05276 0,0.10553 0,0.15829c0,0 0,0 0,0.05277c0,0.05279 0,0.05279 0,0.15832c0,0 0,0.05277 0,0.10553c0,0.10556 0.02018,0.10959 0,0.15833c-0.02855,0.06894 -0.05277,0.10553 -0.05277,0.15829c0,0 0,0.0528 0,0.15833c0,0.05276 0,0.05276 0,0.10553c0,0.05276 0,0.10556 0,0.21109c0,0.05276 0,0.10553 0,0.15832c0,0 0,0.05277 0,0.10553c0,0.05277 0.05277,0.05277 0.05277,0.05277c0,0 0,0.05276 0,0.05276c0.05276,0 0.05276,0.05277 0.05276,0.10556c0,0.05277 0,0.10553 0,0.10553c0,0.05277 0,0.10553 0,0.15833c0,0.05276 0,0.05276 0,0.05276c0,0.05277 0,0.10553 0,0.1583c0,0.05276 0,0.05276 0,0.10556c0,0.05276 0,0.10553 0,0.15829c0,0.05277 0,0.15833 0,0.21109c0,0.05277 0.0202,0.16233 0,0.21109c-0.02855,0.06894 -0.05276,0.1583 -0.05276,0.21106c0,0 0,0.0528 0,0.10556c0,0.05277 0,0.10553 0,0.1583c0,0.05276 0,0.10556 0,0.15832c0,0 0,0.10553 0,0.1583c0,0.05279 0,0.05279 0,0.10556c0,0.10553 0,0.15829 0,0.26385c0,0.05277 0,0.10553 0,0.10553c0,0.05277 0,0.10553 0,0.15833c0,0.05276 0.01545,0.01544 0.05276,0.05276c0.03731,0.03733 0,0.10553 0,0.1583c0,0.05276 0.01544,0.06823 0.05278,0.10556c0.03731,0.03732 0.01546,0.0682 0.05277,0.10553c0.03732,0.03732 0.05278,0.05276 0.05278,0.05276c0.05276,0 0.10553,0 0.15831,0c0,0 0.05276,0 0.05276,0c0,-0.05276 0.05277,-0.05276 0.10555,-0.05276c0.05276,0 0.06822,0.03732 0.10553,0c0.0373,-0.03733 0.05278,-0.05277 0.10554,-0.05277c0.05278,0 0.10555,0 0.10555,0c0,0 0.05276,0 0.10554,0c0.05277,0 0.10553,0 0.10553,0c0,0 0.05278,0 0.10555,0c0.05276,0 0.10554,0 0.10554,0c0.05277,0 0.10555,0 0.15831,0c0.05277,0 0.05277,0 0.10555,0c0.05276,0 0.10553,0 0.15831,0c0,0 0.10552,0 0.21107,0c0,0 0.05278,0 0.10555,0c0.10554,0 0.1583,0 0.26385,0c0.05276,0 0.05276,0 0.10553,0c0.05278,0 0.15833,0 0.21109,0c0.05276,0 0.10554,0 0.15831,0c0,0 0.10554,0 0.15831,0c0.05276,0 0.05276,-0.05276 0.10554,-0.05276c0.05277,0 0.10555,0 0.15831,0c0.05277,0 0.10555,0 0.15831,0c0.05277,0 0.05277,0 0.10555,0c0.05276,0 0.15831,0 0.15831,0c0.05276,0 0.10554,0 0.15831,0c0.05276,0 0.05276,0 0.10554,0c0.05277,0 0.10553,0 0.15831,0c0,0 0.05277,0 0.10553,0c0,0 0.05278,0 0.10555,0c0,0 0.05278,0 0.10554,0c0.05277,0 0.10555,0 0.10555,0c0.05276,0 0.05276,0.05276 0.10553,0.05276c0.05278,0 0.10554,0 0.10554,0c0,0 0.05278,0 0.10555,0c0.10554,0 0.10554,0 0.15831,0c0.05276,0 0.10554,0 0.15831,0.05277c0,0 0.05276,0 0.10554,0c0.05277,0 0.10555,0 0.10555,0c0.05276,0 0.10553,0 0.15831,0c0.05276,0 0.05276,0 0.05276,0c0.05277,0 0.10555,0 0.15831,0c0.05277,0 0.05277,0 0.05277,0l0.05278,0l0,0"/>
  <path fill="none" stroke="#000" stroke-width="0.5" stroke-opacity="null" id="svg_237" d="m64.72682,132.63885c0.05278,0 0.05278,0 0.10555,0c0.05276,0 0.10554,0 0.15831,0.05277c0,0 0.01546,0.01544 0.05276,0.05276c0.03733,0.03733 0.077,-0.01617 0.10555,0.05277c0.02019,0.04873 0.01546,0.06824 0.05278,0.10556c0.03731,0.03732 -0.02019,0.10956 0,0.15829c0.02855,0.06894 0.07841,0.09626 0.10553,0.21109c0.01211,0.05136 0.01546,0.06821 0.05278,0.10553c0.03731,0.03733 -0.02019,0.10959 0,0.15833c0.02855,0.06894 0.05276,0.05276 0.05276,0.15829c0,0.0528 0,0.10556 0,0.10556c0,0 0.06853,-0.05548 0.15831,0c0.10038,0.06205 0.05277,0.1583 0.05277,0.21106c0,0 0.05278,0 0.05278,0c0.05276,0 0.10554,0 0.10554,0.0528l0.05277,0l0,0.05276l0,0"/>
 </g>
</svg>